<svg xmlns="http://www.w3.org/2000/svg" xmlns:xlink="http://www.w3.org/1999/xlink" width="500" zoomAndPan="magnify" viewBox="0 0 375 374.999991" height="500" preserveAspectRatio="xMidYMid meet" version="1.0"><defs><g/><clipPath id="6f53315a67"><path d="M 37.5 26.632812 L 337.5 26.632812 L 337.5 239.632812 L 37.5 239.632812 Z M 37.5 26.632812 " clip-rule="nonzero"/></clipPath><clipPath id="1dfdfb521c"><path d="M 37.5 26.632812 L 337.5 26.632812 L 337.5 169 L 37.5 169 Z M 37.5 26.632812 " clip-rule="nonzero"/></clipPath><clipPath id="6376623816"><path d="M 263.636719 106.558594 L 298.675781 106.558594 L 298.675781 144.058594 L 263.636719 144.058594 Z M 263.636719 106.558594 " clip-rule="nonzero"/></clipPath></defs><g fill="#057299" fill-opacity="1"><g transform="translate(42.715699, 214.191701)"><g><path d="M 35.953125 0 L 34.8125 0.3125 L 33.375 0.109375 L 32.859375 -1.140625 L 32.25 -4.734375 L 31.828125 -5.875 L 31.828125 -7.515625 L 31.21875 -8.65625 L 30.90625 -11.015625 L 30.28125 -12.5625 L 30.1875 -14.109375 L 29.46875 -15.5625 L 29.25 -17 L 28.953125 -17.828125 L 28.53125 -19.15625 L 27.609375 -22.25 L 27.203125 -24.71875 L 27.09375 -25.546875 L 26.6875 -25.953125 L 26.171875 -26.890625 L 25.546875 -29.875 L 24.828125 -31.3125 L 23.59375 -34.921875 L 23.484375 -36.0625 L 22.25 -39.359375 L 21.53125 -40.796875 L 21.015625 -41.40625 L 20.1875 -41 L 19.578125 -41.203125 L 19.265625 -41.625 C 18.921875 -41.476562 18.710938 -41.203125 18.640625 -40.796875 L 17.40625 -40.28125 L 17.09375 -40.484375 L 16.578125 -40.28125 L 13.28125 -39.359375 L 12.46875 -38.53125 L 11.75 -37.703125 L 11.640625 -33.375 L 11.84375 -25.03125 L 11.953125 -23.484375 L 11.640625 -20.390625 L 12.046875 -19.359375 L 11.953125 -13.796875 L 12.15625 -13.703125 L 12.046875 -13.1875 L 12.046875 -5.96875 L 12.359375 -4.328125 L 12.15625 -1.140625 L 11.84375 -0.3125 L 10.5 0.109375 L 8.96875 -0.40625 L 8.03125 0.109375 L 6.28125 -0.109375 L 5.96875 0.109375 L 4.421875 0 C 3.941406 0 3.703125 -0.546875 3.703125 -1.640625 L 3.703125 -4.734375 L 3.8125 -7 L 3.5 -8.03125 L 3.609375 -11.84375 L 3.609375 -13.078125 L 3.921875 -15.859375 L 3.296875 -16.796875 L 3.1875 -17.09375 L 3.1875 -17.203125 L 3.5 -17.40625 L 3.703125 -18.03125 L 3.40625 -20.390625 L 3.5 -24.109375 L 3.8125 -25.234375 L 3.5 -27.609375 L 3.296875 -43.265625 L 3.703125 -44.921875 L 3.296875 -44.921875 L 3.1875 -48.3125 L 3.296875 -49.96875 L 3.09375 -51.40625 L 3.1875 -51.515625 L 3.1875 -53.984375 L 3.40625 -55.53125 L 3.09375 -56.25 L 3.1875 -59.4375 L 3.296875 -66.03125 L 3.5 -67.6875 L 4.421875 -68.09375 L 4.9375 -67.890625 L 11.015625 -67.984375 L 12.78125 -68.203125 L 13.796875 -68.09375 L 14.421875 -68.203125 L 22.140625 -68.203125 L 23.484375 -67.984375 L 24.9375 -67.984375 L 26.265625 -67.6875 L 29.046875 -67.578125 L 30.1875 -66.859375 L 31.21875 -66.859375 L 32.140625 -66.4375 C 32.410156 -66.03125 32.753906 -65.828125 33.171875 -65.828125 L 33.484375 -65.9375 L 33.890625 -65 L 35.125 -64.28125 L 35.328125 -63.765625 L 36.0625 -63.046875 L 36.0625 -62.53125 C 36.40625 -62.457031 36.578125 -62.21875 36.578125 -61.8125 L 36.984375 -61.8125 L 36.984375 -60.46875 L 37.296875 -58.921875 L 37.296875 -55.828125 L 37.390625 -55.53125 L 36.984375 -53.984375 L 36.15625 -52.53125 L 34.71875 -50.578125 L 32.765625 -48.625 L 32.140625 -48.3125 C 32.140625 -48.039062 32.101562 -47.851562 32.03125 -47.75 C 31.96875 -47.644531 31.765625 -47.488281 31.421875 -47.28125 L 30.390625 -46.765625 L 29.875 -46.359375 L 29.25 -45.21875 L 28.953125 -44.296875 L 31.625 -37.59375 L 31.828125 -36.265625 L 32.34375 -35.75 L 33.0625 -33.890625 L 33.0625 -32.859375 L 33.796875 -31.3125 L 33.578125 -31 L 33.6875 -30.59375 L 34.203125 -29.25 L 35.328125 -25.859375 L 37.1875 -19.671875 L 37.1875 -19.0625 L 38.21875 -16.078125 L 38.84375 -13.28125 L 39.359375 -12.359375 L 39.5625 -10.921875 L 39.96875 -10.09375 L 39.96875 -9.0625 L 40.484375 -7.828125 L 40.796875 -5.765625 L 41.515625 -3.09375 L 41.515625 -1.640625 L 41.625 -0.828125 C 41.625 -0.484375 41.519531 -0.273438 41.3125 -0.203125 L 40.484375 0.109375 L 37.5 0.3125 L 36.984375 0.40625 Z M 12.875 -47.078125 L 13.90625 -47.484375 L 14.53125 -47.484375 L 16.28125 -47.90625 L 17.609375 -48.515625 L 18.640625 -48.21875 L 20.390625 -49.453125 L 22.359375 -49.96875 L 23.390625 -50.6875 L 24.828125 -51.515625 L 26.265625 -52.53125 L 27.40625 -53.78125 L 28.53125 -55.3125 L 28.84375 -56.859375 L 28.640625 -58.09375 L 27.8125 -59.125 L 26.890625 -59.75 L 26.265625 -60.0625 L 24.71875 -60.46875 L 19.578125 -60.78125 L 18.03125 -60.671875 L 16.796875 -60.875 L 16.375 -60.578125 L 15.34375 -60.578125 L 14.734375 -60.78125 L 14.53125 -60.78125 L 14.21875 -60.578125 L 13.078125 -60.46875 L 11.84375 -60.0625 L 11.640625 -59.546875 L 11.75 -58.09375 L 11.015625 -56.5625 L 11.640625 -56.140625 L 11.75 -54.703125 L 11.53125 -47.90625 C 11.53125 -47.5625 11.738281 -47.25 12.15625 -46.96875 Z M 12.875 -47.078125 "/></g></g></g><g fill="#057299" fill-opacity="1"><g transform="translate(85.360176, 214.191701)"><g><path d="M 24 -25.859375 L 22.5625 -25.65625 L 21.421875 -25.65625 L 18.234375 -25.953125 L 16.28125 -26.46875 L 15.65625 -26.375 L 14.734375 -27.40625 L 14.015625 -27.203125 L 13.59375 -27.203125 C 13.1875 -27.203125 12.773438 -27.507812 12.359375 -28.125 L 11.234375 -28.53125 L 10.09375 -29.46875 L 9.0625 -30.1875 L 8.546875 -31.109375 L 7.3125 -31.734375 L 6.90625 -32.140625 L 6.1875 -33.890625 C 6.039062 -34.097656 5.898438 -34.203125 5.765625 -34.203125 L 5.671875 -34.203125 L 4.84375 -36.265625 L 4.21875 -37.1875 L 3.40625 -38.734375 L 3.1875 -39.765625 L 3.296875 -40.078125 L 2.78125 -41.109375 L 2.578125 -43.0625 L 2.0625 -44.09375 L 2.265625 -45.53125 L 2.15625 -45.734375 L 2.15625 -48 L 2.375 -48.828125 L 2.265625 -49.859375 L 2.890625 -53.15625 L 4.015625 -56.96875 C 4.015625 -57.101562 4.222656 -57.273438 4.640625 -57.484375 L 4.84375 -57.6875 L 4.84375 -58.609375 L 6.28125 -60.265625 L 6.28125 -60.671875 L 7.3125 -61.90625 L 8.65625 -63.5625 L 10.203125 -64.6875 L 12.875 -66.34375 L 14.3125 -66.859375 L 15.765625 -67.46875 L 18.34375 -67.984375 L 21.9375 -68.203125 L 23.6875 -68.203125 L 25.03125 -67.984375 L 25.4375 -68.09375 L 25.65625 -67.984375 L 26.6875 -68.09375 L 28.4375 -67.6875 L 28.734375 -67.46875 L 28.84375 -67.375 C 28.84375 -67.164062 29.117188 -67.0625 29.671875 -67.0625 L 30.59375 -67.171875 L 31.734375 -66.546875 L 32.546875 -66.34375 L 33.0625 -65.515625 L 33.578125 -65.625 L 34.40625 -65.109375 L 35.03125 -63.765625 L 35.328125 -63.5625 L 36.359375 -63.765625 L 36.984375 -62.421875 L 38.328125 -61.8125 L 38.53125 -61.09375 L 38.84375 -60.78125 L 38.84375 -60.15625 L 39.5625 -59.34375 L 39.5625 -59.125 L 41 -56.453125 L 41.625 -54.5 L 41.625 -52.953125 L 42.140625 -52.125 L 42.03125 -49.859375 L 42.546875 -49.140625 L 42.546875 -45.640625 L 42.234375 -41.828125 L 41.828125 -41.828125 L 41.828125 -40.28125 L 39.96875 -35.4375 L 39.25 -34.296875 L 39.25 -34.09375 L 39.046875 -33.796875 C 38.972656 -33.648438 38.898438 -33.523438 38.828125 -33.421875 C 38.765625 -33.328125 38.695312 -33.175781 38.625 -32.96875 L 38.53125 -32.96875 L 35.84375 -30.078125 L 32.453125 -27.8125 L 31.421875 -27.40625 L 28.53125 -26.578125 L 27.5 -25.953125 L 25.75 -26.171875 L 24.828125 -25.546875 Z M 19.78125 -12.359375 C 19.226562 -12.359375 18.953125 -12.566406 18.953125 -12.984375 L 18.859375 -15.96875 L 18.640625 -16.28125 L 18.75 -17.40625 L 19.15625 -18.4375 L 18.75 -18.859375 L 18.640625 -19.984375 L 19.46875 -20.90625 L 20.609375 -21.125 L 22.453125 -20.90625 L 23.484375 -20.90625 L 24.203125 -21.21875 L 24.71875 -20.90625 L 26.265625 -21.21875 L 26.46875 -21.015625 L 26.890625 -21.015625 L 27.296875 -20.296875 C 27.429688 -20.160156 27.5 -20.019531 27.5 -19.875 C 27.5 -19.738281 27.363281 -19.328125 27.09375 -18.640625 L 27.203125 -18.34375 L 27.296875 -14.734375 L 27.203125 -13.390625 C 27.203125 -12.773438 26.71875 -12.46875 25.75 -12.46875 L 24.515625 -12.46875 L 23.171875 -12.5625 L 21.734375 -12.46875 Z M 18.953125 -0.71875 L 18.953125 -1.140625 L 19.0625 -2.265625 L 19.359375 -3.703125 L 19.0625 -4.015625 L 19.265625 -5.25 L 19.359375 -6.1875 L 19.265625 -8.03125 L 20.1875 -8.546875 L 20.703125 -8.75 L 21.9375 -8.546875 L 23.078125 -8.75 L 23.59375 -8.34375 L 25.34375 -8.546875 L 26.375 -8.453125 L 27.203125 -8.34375 L 27.40625 -7.9375 L 27.40625 -2.0625 L 26.984375 -0.515625 L 25.4375 0.109375 L 23.796875 0.109375 L 22.25 -0.109375 L 19.46875 0.109375 Z M 22.140625 -33.484375 L 23.484375 -33.375 L 26.265625 -33.890625 L 28.84375 -35.03125 L 30.59375 -36.15625 L 31.625 -37.5 L 32.140625 -38.625 L 32.65625 -39.359375 L 32.859375 -39.859375 L 33.0625 -40.28125 L 33.578125 -41.625 L 34 -42.859375 L 34.40625 -46.15625 L 34.203125 -49.75 L 34 -51.40625 L 33.578125 -52.640625 L 33.171875 -54.078125 C 33.035156 -54.554688 32.929688 -54.847656 32.859375 -54.953125 C 32.796875 -55.054688 32.625 -55.109375 32.34375 -55.109375 L 31.625 -56.65625 L 29.359375 -58.828125 L 27.71875 -59.953125 L 26.578125 -60.265625 L 25.859375 -60.265625 L 25.234375 -60.578125 L 24.3125 -60.671875 L 22.65625 -60.875 L 20.90625 -60.78125 L 19.671875 -60.578125 L 17.09375 -59.640625 L 16.171875 -59.34375 L 14.625 -58.09375 L 13.390625 -56.765625 L 12.875 -55.828125 L 11.75 -54.703125 L 11.4375 -53.265625 L 11.015625 -52.234375 L 10.5 -49.65625 L 10.40625 -47.796875 L 10.203125 -47.1875 L 10.40625 -46.15625 L 10.296875 -45.734375 L 10.40625 -43.890625 L 10.71875 -43.375 L 10.609375 -42.953125 L 10.71875 -41.828125 L 11.640625 -40.28125 L 12.15625 -38.9375 L 12.359375 -38.421875 L 13.703125 -37.703125 L 13.703125 -36.359375 L 14.625 -36.578125 L 14.9375 -35.953125 L 16.078125 -35.03125 L 17.71875 -34.203125 L 19.875 -33.484375 L 21.734375 -33.375 Z M 22.140625 -33.484375 "/></g></g></g><g fill="#057299" fill-opacity="1"><g transform="translate(129.961767, 214.191701)"><g><path d="M 21.328125 0.203125 L 20.09375 0.109375 L 18.953125 -0.3125 L 17.515625 -0.203125 C 17.234375 -0.484375 16.992188 -0.625 16.796875 -0.625 C 16.585938 -0.625 16.414062 -0.550781 16.28125 -0.40625 L 14.625 -1.03125 L 14.015625 -1.75 L 13.59375 -1.34375 L 12.359375 -2.15625 L 11.4375 -2.890625 L 10.5 -3.40625 L 10.09375 -4.21875 L 8.96875 -4.640625 L 8.453125 -5.359375 L 8.140625 -6.703125 L 7.828125 -6.59375 C 7.421875 -6.59375 7.113281 -6.867188 6.90625 -7.421875 L 5.453125 -10.71875 L 4.421875 -14.015625 L 4.125 -15.765625 L 4.125 -17.40625 L 3.703125 -19.0625 L 3.921875 -20.1875 L 3.8125 -21.421875 L 3.40625 -22.25 L 3.40625 -26.0625 L 3.296875 -27.921875 L 3.5 -29.671875 L 3.40625 -30.90625 L 3.40625 -41.921875 L 3.609375 -43.15625 L 3.296875 -44.1875 L 3.5 -46.5625 L 3.1875 -46.875 L 3.09375 -50.265625 L 3.40625 -51.09375 L 3.1875 -51.71875 L 3.296875 -52.53125 L 3.609375 -53.265625 C 3.671875 -53.398438 3.703125 -53.640625 3.703125 -53.984375 L 3.703125 -54.1875 L 3.296875 -54.796875 L 3.1875 -59.234375 L 3.09375 -60.265625 L 3.40625 -60.875 L 3.40625 -61.1875 C 3.40625 -61.394531 3.300781 -61.601562 3.09375 -61.8125 L 3.5 -64.171875 L 3.296875 -64.28125 L 3.296875 -66.34375 L 3.5 -67.78125 L 5.671875 -68.203125 L 6.90625 -68.203125 L 10.203125 -68.09375 C 10.546875 -68.09375 10.867188 -67.972656 11.171875 -67.734375 C 11.484375 -67.492188 11.640625 -67.269531 11.640625 -67.0625 L 11.640625 -65.828125 L 11.53125 -60.46875 C 11.675781 -60.0625 11.75 -59.820312 11.75 -59.75 L 11.75 -59.4375 L 11.53125 -58 L 11.75 -56.65625 L 11.53125 -55.109375 L 11.640625 -51.8125 L 11.328125 -49.96875 L 11.4375 -47.703125 L 11.328125 -46.15625 L 11.640625 -44.703125 L 11.328125 -43.375 L 11.4375 -41.71875 L 11.328125 -40.59375 L 11.234375 -38.84375 L 11.328125 -36.671875 L 11.234375 -34.515625 L 11.328125 -32.859375 L 11.234375 -31.21875 L 11.328125 -29.671875 L 11.640625 -27.8125 L 11.640625 -22.96875 L 11.84375 -21.21875 L 11.84375 -19.671875 L 12.46875 -16.890625 L 13.28125 -13.703125 L 13.90625 -12.46875 L 14.421875 -11.84375 L 15.453125 -10.296875 L 16.796875 -9.578125 L 17 -9.171875 L 17.515625 -9.0625 L 18.125 -8.65625 L 19.78125 -8.03125 L 21.53125 -7.828125 C 21.875 -7.828125 22.148438 -7.722656 22.359375 -7.515625 L 24 -7.515625 L 25.4375 -7.9375 L 27.203125 -8.140625 L 28.953125 -8.96875 L 30.28125 -9.890625 L 31.109375 -10.40625 C 31.378906 -10.8125 31.550781 -11.050781 31.625 -11.125 L 31.9375 -11.953125 L 32.765625 -12.78125 L 32.65625 -13.90625 L 33.484375 -14.9375 L 34 -16.796875 L 34.296875 -18.640625 L 34.40625 -19.875 L 34.609375 -21.421875 L 34.515625 -22.96875 L 34.515625 -23.390625 C 34.515625 -23.734375 34.648438 -24.078125 34.921875 -24.421875 L 34.71875 -25.03125 L 34.71875 -26.375 L 35.03125 -27.296875 L 34.8125 -35.953125 L 34.8125 -36.78125 L 34.921875 -37.390625 L 34.8125 -42.75 L 34.609375 -43.265625 L 34.609375 -44.609375 L 34.921875 -45.21875 L 34.8125 -45.84375 L 34.515625 -47.078125 L 34.515625 -56.859375 L 34.203125 -58.515625 L 34.40625 -60.15625 L 34.296875 -61.703125 L 34.09375 -62.84375 L 34.296875 -65 L 33.890625 -66.65625 L 34.09375 -67.0625 L 34.8125 -67.984375 L 35.546875 -67.984375 L 37.703125 -68.203125 L 41.109375 -68.09375 L 41.828125 -68.09375 C 41.960938 -68.019531 42.097656 -67.945312 42.234375 -67.875 C 42.367188 -67.8125 42.507812 -67.710938 42.65625 -67.578125 L 42.75 -66.34375 L 42.75 -64.484375 L 42.953125 -59.03125 L 42.65625 -56.65625 L 42.859375 -55.625 L 42.65625 -53.875 L 42.953125 -51 L 42.859375 -50.484375 L 42.859375 -49.34375 L 42.75 -49.234375 L 42.953125 -49.03125 L 42.859375 -48.421875 L 43.0625 -41.625 L 42.953125 -38.84375 L 42.859375 -37.296875 L 43.0625 -35.640625 L 42.75 -34.921875 L 43.265625 -33.578125 L 43.15625 -32.546875 L 42.859375 -26.984375 L 42.953125 -26.375 L 43.0625 -25.859375 L 43.46875 -25.234375 L 43.375 -25.03125 L 42.859375 -24.203125 L 43.15625 -23.078125 L 43.0625 -22.65625 L 42.859375 -22.5625 L 42.75 -19.265625 L 42.234375 -15.046875 L 41.921875 -13.59375 L 41.3125 -12.15625 L 41.625 -11.84375 L 41.40625 -11.640625 L 39.96875 -8.34375 L 38.734375 -6.59375 L 35.953125 -3.40625 L 34.40625 -2.671875 L 33.890625 -2.15625 C 33.484375 -2.15625 33.242188 -2.296875 33.171875 -2.578125 L 32.03125 -1.546875 L 30.1875 -0.71875 L 28.53125 -0.40625 L 28.4375 -0.203125 L 26.6875 0.109375 L 24.3125 0.40625 Z M 21.328125 0.203125 "/></g></g></g><g fill="#057299" fill-opacity="1"><g transform="translate(176.417457, 214.191701)"><g><path d="M 19.984375 -0.203125 L 19.359375 -0.109375 L 17.828125 0.109375 L 16.890625 -0.203125 L 16.484375 -0.625 L 16.28125 -0.625 L 16.484375 -8.96875 L 16.484375 -9.265625 L 16.375 -10.8125 L 16.578125 -14.015625 L 16.171875 -18.953125 L 16.578125 -21.328125 L 16.375 -25.75 L 16.375 -28.015625 L 16.484375 -29.765625 L 16.375 -30.703125 L 16.578125 -34 L 16.171875 -35.234375 L 16.375 -39.046875 L 16.28125 -43.375 L 16.171875 -51.921875 L 16.171875 -53.78125 L 16.484375 -55.015625 C 16.347656 -55.078125 16.210938 -55.28125 16.078125 -55.625 L 16.28125 -57.484375 L 15.765625 -57.890625 L 15.765625 -59.03125 C 15.691406 -59.4375 15.519531 -59.914062 15.25 -60.46875 L 14.015625 -60.578125 L 10.203125 -60.578125 L 8.65625 -60.671875 L 6.796875 -60.359375 L 4.328125 -60.671875 L 4.125 -60.359375 L 2.671875 -60.46875 L 1.75 -60.984375 L 1.140625 -61.90625 L 1.140625 -66.234375 L 1.03125 -67.0625 C 1.164062 -67.476562 1.40625 -67.6875 1.75 -67.6875 L 1.859375 -67.984375 L 3.296875 -68.203125 L 6.796875 -68.296875 L 7.625 -68.40625 L 8.859375 -68.09375 L 9.484375 -67.984375 L 11.125 -68.203125 L 12.984375 -67.984375 L 13.703125 -68.40625 L 14.421875 -68.203125 L 20.09375 -68.09375 L 21.421875 -67.78125 L 23.390625 -67.984375 L 24.625 -68.09375 L 26.0625 -67.78125 L 36.265625 -68.09375 L 37.078125 -68.203125 L 38.328125 -67.890625 L 38.9375 -66.859375 L 38.734375 -66.65625 L 38.734375 -62.328125 L 37.90625 -61.09375 L 37.8125 -60.359375 L 36.46875 -60.671875 L 34.8125 -60.46875 L 33.578125 -60.578125 C 33.441406 -60.984375 33.203125 -61.1875 32.859375 -61.1875 L 32.25 -60.78125 L 31.421875 -60.78125 L 31.3125 -60.578125 L 26.375 -60.671875 L 25.234375 -60.15625 L 24.71875 -58.515625 L 24.625 -53.5625 L 24.71875 -53.046875 L 24.515625 -52.328125 L 24.625 -51.09375 L 24.71875 -43.671875 L 24.515625 -42.4375 L 24.828125 -41.515625 L 24.515625 -39.5625 L 24.625 -38.328125 L 24.515625 -30.59375 L 24.625 -27.8125 L 24.71875 -26.375 L 24.515625 -24.828125 L 24.625 -22.765625 L 24.625 -21.640625 L 24.203125 -19.984375 L 24.625 -18.75 L 24.625 -13.90625 L 24.828125 -12.5625 L 25.140625 -10.609375 L 25.140625 -8.75 L 24.71875 -8.234375 L 24.71875 -7.625 L 24.828125 -7.421875 L 25.03125 -7.421875 L 25.03125 -1.75 C 25.03125 -1.613281 25.015625 -1.507812 24.984375 -1.4375 C 24.953125 -1.375 24.9375 -1.273438 24.9375 -1.140625 L 24.9375 -0.828125 L 24.515625 -0.625 L 23.28125 -0.109375 L 21.640625 0.203125 L 20.703125 0.203125 Z M 19.984375 -0.203125 "/></g></g></g><g fill="#057299" fill-opacity="1"><g transform="translate(216.383779, 214.191701)"><g><path d="M 35.953125 0 L 34.8125 0.3125 L 33.375 0.109375 L 32.859375 -1.140625 L 32.25 -4.734375 L 31.828125 -5.875 L 31.828125 -7.515625 L 31.21875 -8.65625 L 30.90625 -11.015625 L 30.28125 -12.5625 L 30.1875 -14.109375 L 29.46875 -15.5625 L 29.25 -17 L 28.953125 -17.828125 L 28.53125 -19.15625 L 27.609375 -22.25 L 27.203125 -24.71875 L 27.09375 -25.546875 L 26.6875 -25.953125 L 26.171875 -26.890625 L 25.546875 -29.875 L 24.828125 -31.3125 L 23.59375 -34.921875 L 23.484375 -36.0625 L 22.25 -39.359375 L 21.53125 -40.796875 L 21.015625 -41.40625 L 20.1875 -41 L 19.578125 -41.203125 L 19.265625 -41.625 C 18.921875 -41.476562 18.710938 -41.203125 18.640625 -40.796875 L 17.40625 -40.28125 L 17.09375 -40.484375 L 16.578125 -40.28125 L 13.28125 -39.359375 L 12.46875 -38.53125 L 11.75 -37.703125 L 11.640625 -33.375 L 11.84375 -25.03125 L 11.953125 -23.484375 L 11.640625 -20.390625 L 12.046875 -19.359375 L 11.953125 -13.796875 L 12.15625 -13.703125 L 12.046875 -13.1875 L 12.046875 -5.96875 L 12.359375 -4.328125 L 12.15625 -1.140625 L 11.84375 -0.3125 L 10.5 0.109375 L 8.96875 -0.40625 L 8.03125 0.109375 L 6.28125 -0.109375 L 5.96875 0.109375 L 4.421875 0 C 3.941406 0 3.703125 -0.546875 3.703125 -1.640625 L 3.703125 -4.734375 L 3.8125 -7 L 3.5 -8.03125 L 3.609375 -11.84375 L 3.609375 -13.078125 L 3.921875 -15.859375 L 3.296875 -16.796875 L 3.1875 -17.09375 L 3.1875 -17.203125 L 3.5 -17.40625 L 3.703125 -18.03125 L 3.40625 -20.390625 L 3.5 -24.109375 L 3.8125 -25.234375 L 3.5 -27.609375 L 3.296875 -43.265625 L 3.703125 -44.921875 L 3.296875 -44.921875 L 3.1875 -48.3125 L 3.296875 -49.96875 L 3.09375 -51.40625 L 3.1875 -51.515625 L 3.1875 -53.984375 L 3.40625 -55.53125 L 3.09375 -56.25 L 3.1875 -59.4375 L 3.296875 -66.03125 L 3.5 -67.6875 L 4.421875 -68.09375 L 4.9375 -67.890625 L 11.015625 -67.984375 L 12.78125 -68.203125 L 13.796875 -68.09375 L 14.421875 -68.203125 L 22.140625 -68.203125 L 23.484375 -67.984375 L 24.9375 -67.984375 L 26.265625 -67.6875 L 29.046875 -67.578125 L 30.1875 -66.859375 L 31.21875 -66.859375 L 32.140625 -66.4375 C 32.410156 -66.03125 32.753906 -65.828125 33.171875 -65.828125 L 33.484375 -65.9375 L 33.890625 -65 L 35.125 -64.28125 L 35.328125 -63.765625 L 36.0625 -63.046875 L 36.0625 -62.53125 C 36.40625 -62.457031 36.578125 -62.21875 36.578125 -61.8125 L 36.984375 -61.8125 L 36.984375 -60.46875 L 37.296875 -58.921875 L 37.296875 -55.828125 L 37.390625 -55.53125 L 36.984375 -53.984375 L 36.15625 -52.53125 L 34.71875 -50.578125 L 32.765625 -48.625 L 32.140625 -48.3125 C 32.140625 -48.039062 32.101562 -47.851562 32.03125 -47.75 C 31.96875 -47.644531 31.765625 -47.488281 31.421875 -47.28125 L 30.390625 -46.765625 L 29.875 -46.359375 L 29.25 -45.21875 L 28.953125 -44.296875 L 31.625 -37.59375 L 31.828125 -36.265625 L 32.34375 -35.75 L 33.0625 -33.890625 L 33.0625 -32.859375 L 33.796875 -31.3125 L 33.578125 -31 L 33.6875 -30.59375 L 34.203125 -29.25 L 35.328125 -25.859375 L 37.1875 -19.671875 L 37.1875 -19.0625 L 38.21875 -16.078125 L 38.84375 -13.28125 L 39.359375 -12.359375 L 39.5625 -10.921875 L 39.96875 -10.09375 L 39.96875 -9.0625 L 40.484375 -7.828125 L 40.796875 -5.765625 L 41.515625 -3.09375 L 41.515625 -1.640625 L 41.625 -0.828125 C 41.625 -0.484375 41.519531 -0.273438 41.3125 -0.203125 L 40.484375 0.109375 L 37.5 0.3125 L 36.984375 0.40625 Z M 12.875 -47.078125 L 13.90625 -47.484375 L 14.53125 -47.484375 L 16.28125 -47.90625 L 17.609375 -48.515625 L 18.640625 -48.21875 L 20.390625 -49.453125 L 22.359375 -49.96875 L 23.390625 -50.6875 L 24.828125 -51.515625 L 26.265625 -52.53125 L 27.40625 -53.78125 L 28.53125 -55.3125 L 28.84375 -56.859375 L 28.640625 -58.09375 L 27.8125 -59.125 L 26.890625 -59.75 L 26.265625 -60.0625 L 24.71875 -60.46875 L 19.578125 -60.78125 L 18.03125 -60.671875 L 16.796875 -60.875 L 16.375 -60.578125 L 15.34375 -60.578125 L 14.734375 -60.78125 L 14.53125 -60.78125 L 14.21875 -60.578125 L 13.078125 -60.46875 L 11.84375 -60.0625 L 11.640625 -59.546875 L 11.75 -58.09375 L 11.015625 -56.5625 L 11.640625 -56.140625 L 11.75 -54.703125 L 11.53125 -47.90625 C 11.53125 -47.5625 11.738281 -47.25 12.15625 -46.96875 Z M 12.875 -47.078125 "/></g></g></g><g fill="#057299" fill-opacity="1"><g transform="translate(259.028269, 214.191701)"><g><path d="M 8.859375 -0.109375 L 8.453125 0.109375 L 7.625 0.109375 L 6.28125 0.203125 L 5.671875 0 L 3.921875 0.109375 L 3.09375 -0.921875 L 3.09375 -4.125 L 3.1875 -5.453125 L 3.8125 -6.28125 L 3.296875 -7 L 3.296875 -8.65625 L 3.1875 -9.78125 L 3.296875 -17 L 3.1875 -18.4375 L 3.1875 -21.125 L 3.40625 -21.640625 L 3.40625 -23.484375 L 3.09375 -24.109375 L 3.1875 -24.3125 L 3.09375 -25.234375 L 3.1875 -32.34375 L 3.296875 -32.65625 L 3.1875 -33.796875 L 3.703125 -34.203125 L 3.09375 -35.4375 L 3.703125 -36.875 C 3.296875 -37.5625 3.09375 -38.144531 3.09375 -38.625 L 3.1875 -44.609375 L 3.296875 -45.84375 L 3.296875 -47.703125 L 3.09375 -51.71875 L 3.09375 -52.125 L 3.296875 -52.125 L 3.40625 -53.265625 L 3.1875 -53.5625 L 3.1875 -54.296875 L 3.296875 -55.21875 L 3.09375 -55.625 L 3.1875 -60.875 L 3.09375 -65.625 L 3.40625 -67.890625 L 4.640625 -68.40625 L 5.25 -68.203125 L 6.28125 -68.40625 L 6.703125 -68.203125 L 7.109375 -68.5 L 7.515625 -68.40625 L 11.328125 -68.296875 L 12.15625 -68.5 L 12.15625 -68.296875 L 13.796875 -68.40625 L 16.6875 -68.203125 L 17.921875 -68.40625 L 19.15625 -68.296875 L 20.296875 -68.609375 L 21.53125 -67.6875 L 21.640625 -66.234375 L 21.640625 -62.84375 L 21.328125 -61.5 L 19.265625 -61.1875 L 17.203125 -61.1875 L 16.578125 -61.5 L 13.59375 -61.390625 L 12.5625 -61.390625 C 12.5 -61.390625 12.257812 -61.460938 11.84375 -61.609375 L 11.328125 -60.265625 L 11.328125 -57.28125 L 11.953125 -56.859375 L 13.28125 -57.078125 L 14.828125 -56.96875 C 15.316406 -56.96875 15.695312 -56.832031 15.96875 -56.5625 L 16.171875 -56.65625 L 16.484375 -56.453125 L 18.03125 -57.078125 L 18.546875 -56.65625 L 20.1875 -57.078125 L 22.25 -56.96875 L 26.46875 -57.078125 L 28.640625 -56.96875 L 28.84375 -56.765625 L 29.046875 -55.53125 L 29.15625 -53.15625 L 28.953125 -51.921875 L 29.15625 -51.40625 L 28.640625 -49.859375 L 27.09375 -49.75 L 23.390625 -49.859375 L 19.78125 -49.65625 L 19.359375 -50.0625 L 18.4375 -49.859375 L 16.890625 -49.75 L 14.21875 -49.75 L 12.15625 -49.859375 L 11.234375 -49.140625 L 11.328125 -47.90625 L 11.328125 -41.3125 L 11.234375 -38.015625 L 11.4375 -30.390625 L 11.234375 -29.875 L 11.015625 -28.953125 L 11.53125 -28.53125 L 11.125 -27.203125 L 11.640625 -26.6875 L 11.53125 -25.75 L 11.4375 -24.71875 L 11.640625 -23.171875 C 11.429688 -22.828125 11.328125 -22.585938 11.328125 -22.453125 C 11.328125 -22.316406 11.429688 -22.113281 11.640625 -21.84375 L 11.328125 -21.015625 L 11.328125 -19.46875 L 11.125 -18.953125 L 11.4375 -18.234375 L 11.328125 -16.796875 L 11.53125 -16.171875 C 11.53125 -15.828125 11.460938 -15.585938 11.328125 -15.453125 L 11.234375 -15.34375 L 11.53125 -14.015625 L 11.234375 -11.234375 L 11.53125 -10.296875 L 11.4375 -8.859375 L 11.640625 -7.625 L 12.359375 -7.421875 L 13.703125 -7.71875 C 14.109375 -7.445312 14.382812 -7.3125 14.53125 -7.3125 L 15.046875 -7.421875 L 16.078125 -7.625 L 17.609375 -7.3125 L 18.234375 -7.3125 L 18.234375 -7.625 L 20.09375 -7.71875 L 22.65625 -7.625 L 22.96875 -7.421875 L 22.96875 -7.71875 L 25.4375 -7.515625 L 26.890625 -7.71875 L 27.8125 -7.3125 L 28.015625 -5.5625 L 27.8125 -3.703125 L 27.921875 -3.5 L 27.8125 -2.78125 L 27.921875 -1.34375 L 27.921875 -0.71875 L 27.09375 0 L 22.765625 0 L 21.328125 0.203125 L 20.90625 0 L 20.1875 0.109375 L 16.6875 0.203125 L 15.765625 0.203125 L 15.34375 0.109375 L 13.59375 0.203125 L 12.359375 -0.109375 L 11.4375 0.109375 L 10.296875 0.3125 L 10.09375 0.40625 Z M 8.859375 -0.109375 "/></g></g></g><g fill="#057299" fill-opacity="1"><g transform="translate(290.239069, 214.191701)"><g><path d="M 8.546875 0 L 5.046875 0.109375 L 3.5 0 L 3.09375 -0.71875 L 3.296875 -5.359375 L 3.1875 -8.96875 L 3.40625 -10.5 L 3.1875 -12.046875 L 3.40625 -13.703125 L 3.1875 -14.828125 L 3.40625 -18.546875 L 3.1875 -20.09375 L 3.296875 -21.640625 L 3.1875 -23.390625 L 3.40625 -24.9375 L 3.296875 -27.921875 L 3.296875 -29.15625 L 3.09375 -30.390625 L 3.09375 -33.6875 L 3.609375 -37.078125 L 3.09375 -38.21875 L 3.40625 -41.109375 L 3.40625 -42.140625 L 3.5 -44.703125 L 3.40625 -45.53125 L 3.609375 -45.734375 L 3.296875 -47.390625 L 3.296875 -49.234375 L 3.40625 -51.203125 L 3.09375 -52.953125 C 3.15625 -53.015625 3.1875 -53.082031 3.1875 -53.15625 L 3.296875 -53.5625 L 3.40625 -54.59375 L 3.40625 -56.96875 L 3.5 -57.796875 C 3.5 -57.929688 3.46875 -58 3.40625 -58 C 3.40625 -58.132812 3.382812 -58.320312 3.34375 -58.5625 C 3.3125 -58.800781 3.296875 -59.0625 3.296875 -59.34375 L 3.40625 -62.53125 L 3.40625 -64.171875 C 3.332031 -64.171875 3.296875 -64.207031 3.296875 -64.28125 L 3.40625 -64.484375 L 3.1875 -65.109375 L 3.09375 -66.34375 L 3.296875 -66.75 L 3.296875 -67.984375 L 4.84375 -67.890625 L 5.046875 -67.890625 C 5.316406 -68.023438 5.660156 -68.09375 6.078125 -68.09375 C 6.148438 -68.09375 6.21875 -68.054688 6.28125 -67.984375 C 6.351562 -67.984375 6.421875 -67.953125 6.484375 -67.890625 L 10.921875 -67.984375 L 11.328125 -67.890625 L 11.84375 -66.75 L 11.640625 -65.9375 L 11.75 -64.171875 L 11.328125 -62.84375 L 11.53125 -62.015625 L 11.53125 -60.875 L 11.4375 -57.484375 L 11.53125 -50.265625 L 11.4375 -48.71875 L 11.4375 -47.90625 C 11.4375 -47.695312 11.453125 -47.554688 11.484375 -47.484375 C 11.515625 -47.421875 11.671875 -47.285156 11.953125 -47.078125 C 12.085938 -46.941406 12.191406 -46.804688 12.265625 -46.671875 L 13.390625 -47.078125 C 13.390625 -47.421875 13.425781 -47.628906 13.5 -47.703125 L 14.421875 -48.21875 L 15.046875 -49.140625 L 15.65625 -49.34375 L 16.171875 -50.265625 L 17.203125 -51.40625 L 17.71875 -52.328125 L 19.0625 -53.78125 L 20.09375 -54.90625 L 20.390625 -55.421875 C 20.390625 -55.492188 20.53125 -55.597656 20.8125 -55.734375 L 21.015625 -56.65625 L 21.84375 -57.578125 L 22.359375 -58.71875 L 22.765625 -59.03125 L 24.203125 -61.703125 L 24.828125 -62.734375 L 24.828125 -63.15625 L 25.03125 -63.359375 L 25.34375 -63.765625 L 25.75 -64.171875 C 25.882812 -64.242188 26.023438 -64.554688 26.171875 -65.109375 L 26.46875 -66.4375 C 26.46875 -66.507812 26.570312 -66.648438 26.78125 -66.859375 C 26.914062 -67.128906 26.984375 -67.40625 26.984375 -67.6875 L 28.328125 -67.890625 L 31.3125 -67.78125 L 35.328125 -67.6875 C 35.398438 -67.476562 35.4375 -67.300781 35.4375 -67.15625 C 35.4375 -67.019531 35.503906 -66.882812 35.640625 -66.75 L 35.234375 -65.109375 L 34.203125 -63.765625 L 33.6875 -62.21875 L 32.765625 -60.46875 L 32.546875 -59.953125 L 31.421875 -58.515625 L 31.515625 -57.796875 L 30.5 -56.34375 L 30.28125 -56.25 C 30.082031 -56.25 29.984375 -56.144531 29.984375 -55.9375 C 29.984375 -55.863281 29.945312 -55.796875 29.875 -55.734375 L 29.875 -55.625 L 26.265625 -49.96875 L 26.46875 -48.515625 L 27.296875 -46.96875 L 28.015625 -45.328125 L 28.84375 -42.75 L 30.390625 -39.453125 L 30.5 -38.84375 L 30.703125 -38.84375 L 30.796875 -37.296875 L 31.9375 -34.203125 L 33.375 -29.46875 L 34.09375 -27.8125 L 34.8125 -24.71875 L 35.234375 -23.59375 L 36.0625 -21.84375 L 36.984375 -18.125 L 37.078125 -16.578125 L 37.8125 -14.625 L 38.109375 -13.5 L 38.84375 -11.84375 L 39.140625 -9.0625 L 39.5625 -7.71875 L 40.078125 -6.796875 L 40.6875 -3.40625 L 41 -0.71875 C 40.863281 -0.582031 40.796875 -0.410156 40.796875 -0.203125 L 39.5625 0.109375 L 37.296875 0.109375 L 36.15625 0.203125 L 34.921875 -0.109375 L 33.484375 0.203125 L 32.34375 -0.203125 C 32.207031 -0.273438 32.070312 -0.429688 31.9375 -0.671875 C 31.800781 -0.910156 31.734375 -1.132812 31.734375 -1.34375 L 31.625 -2.15625 L 30.90625 -7.828125 L 30.390625 -9.6875 L 30.28125 -11.4375 L 29.671875 -12.265625 L 29.046875 -15.65625 L 28.4375 -18.125 L 27.609375 -20.703125 L 26.984375 -23.796875 L 25.75 -26.890625 L 25.34375 -28.125 L 25.140625 -29.5625 L 24.421875 -30.90625 L 24 -32.96875 L 22.765625 -36.46875 L 22.25 -36.984375 L 21.328125 -39.859375 L 20.609375 -41.625 L 20.390625 -42.234375 L 19.46875 -42.234375 L 16.796875 -39.859375 L 14.9375 -38.015625 L 14.53125 -37.90625 L 13.390625 -36.15625 L 13.078125 -36.15625 C 12.804688 -36.15625 12.566406 -36.019531 12.359375 -35.75 L 11.75 -35.03125 L 11.328125 -33.375 L 11.4375 -28.4375 L 11.234375 -26.265625 L 11.4375 -23.078125 L 11.4375 -14.828125 C 11.4375 -14.628906 11.539062 -14.425781 11.75 -14.21875 L 11.328125 -12.875 L 11.75 -11.75 L 11.53125 -8.65625 L 11.84375 -6.390625 L 11.84375 -1.546875 L 11.53125 -0.203125 L 10.5 0.3125 Z M 8.546875 0 "/></g></g></g><g clip-path="url(#6f53315a67)"><path fill="#ffffff" d="M -52 65.414062 C -52.199219 70.054688 -52.332031 74.730469 -52.265625 79.40625 C -53.265625 81.308594 -54.203125 83.246094 -55.035156 85.183594 C -54.300781 78.503906 -53.265625 71.890625 -52 65.414062 Z M 43.304688 -80.984375 C 39.070312 -76.242188 35.234375 -70.96875 31.730469 -65.222656 C 23.757812 -61.214844 16.417969 -56.875 9.746094 -52.199219 C 19.988281 -62.785156 31.230469 -72.46875 43.304688 -80.984375 Z M 348.304688 -52.234375 C 341.632812 -56.90625 334.257812 -61.28125 326.285156 -65.257812 C 322.785156 -71.066406 318.882812 -76.375 314.609375 -81.152344 C 325.550781 -73.4375 335.925781 -64.753906 345.566406 -55.105469 C 346.5 -54.203125 347.402344 -53.203125 348.304688 -52.234375 Z M 410.316406 79.371094 C 410.417969 74.628906 410.285156 69.953125 410.050781 65.277344 C 411.316406 71.757812 412.285156 78.269531 413.019531 84.882812 C 412.21875 83.042969 411.316406 81.175781 410.316406 79.371094 Z M 409.382812 160.917969 C 408.882812 152.003906 406.378906 143.320312 401.976562 134.871094 C 406.378906 119.34375 409.082031 103.546875 409.984375 87.753906 C 412.351562 93.429688 413.785156 99.207031 414.417969 105.050781 C 414.453125 107.222656 414.554688 109.425781 414.554688 111.628906 C 414.554688 128.394531 412.785156 144.890625 409.382812 160.917969 Z M 340.265625 283.40625 C 340.832031 282.570312 341.332031 281.703125 341.832031 280.835938 C 343.699219 279.433594 345.5 277.964844 347.335938 276.496094 C 346.734375 277.09375 346.167969 277.761719 345.566406 278.363281 C 343.832031 280.101562 342.03125 281.738281 340.265625 283.40625 Z M 10.582031 276.359375 C 12.414062 277.863281 14.25 279.367188 16.117188 280.769531 C 16.617188 281.636719 17.152344 282.503906 17.71875 283.375 C 15.953125 281.703125 14.183594 280.066406 12.449219 278.363281 C 11.816406 277.695312 11.214844 277.027344 10.582031 276.359375 Z M -28.617188 56.0625 C -28.414062 71.421875 -26.480469 87.183594 -22.675781 103.28125 C -22.378906 104.484375 -22.078125 105.6875 -21.777344 106.886719 C -23.910156 108.757812 -25.945312 110.660156 -27.882812 112.597656 C -33.753906 118.476562 -38.589844 124.554688 -42.324219 130.730469 C -46.5625 114.867188 -48.964844 98.773438 -49.496094 82.644531 C -44.726562 73.292969 -37.6875 64.378906 -28.617188 56.0625 Z M -41.625 29.082031 C -37.054688 20.265625 -30.417969 11.917969 -21.976562 4.167969 C -26.214844 19.128906 -28.449219 34.789062 -28.648438 50.921875 C -30.949219 52.921875 -33.152344 54.960938 -35.21875 56.996094 C -41.023438 62.839844 -45.796875 68.785156 -49.632812 74.898438 C -49.597656 65.679688 -48.929688 56.496094 -47.664062 47.378906 C -45.894531 41.167969 -43.859375 35.058594 -41.625 29.082031 Z M -5.699219 -34.5 C -7.300781 -31.730469 -8.832031 -28.890625 -10.269531 -26.019531 C -12.070312 -24.449219 -13.804688 -22.914062 -15.4375 -21.277344 C -12.335938 -25.820312 -9.101562 -30.261719 -5.699219 -34.5 Z M 22.921875 -47.757812 C 12.347656 -42.382812 2.941406 -36.503906 -5.164062 -30.191406 C -2.59375 -34.902344 0.238281 -39.511719 3.277344 -44.019531 C 10.816406 -50.195312 19.554688 -55.90625 29.261719 -61.015625 C 26.960938 -56.808594 24.824219 -52.398438 22.921875 -47.757812 Z M 73.394531 -78.648438 C 71.394531 -74.472656 69.59375 -70 67.992188 -65.289062 C 61.253906 -63.320312 54.714844 -61.148438 48.375 -58.8125 C 40.636719 -55.90625 33.398438 -52.835938 26.59375 -49.527344 C 28.695312 -54.371094 31.03125 -58.945312 33.597656 -63.253906 C 45.574219 -69.195312 58.949219 -74.371094 73.394531 -78.648438 Z M 55.082031 -88.832031 C 58.515625 -90.96875 61.988281 -93.007812 65.523438 -94.945312 C 73.429688 -98.582031 82 -101.824219 91.074219 -104.59375 C 84.804688 -98.183594 79.433594 -90.601562 74.929688 -81.820312 C 60.984375 -77.777344 47.941406 -72.9375 36.167969 -67.394531 C 41.605469 -75.675781 47.941406 -82.855469 55.082031 -88.832031 Z M 95.179688 -108.535156 C 94.578125 -108.402344 93.976562 -108.234375 93.375 -108.035156 C 94.109375 -108.335938 94.84375 -108.601562 95.578125 -108.867188 C 95.445312 -108.769531 95.3125 -108.667969 95.179688 -108.535156 Z M 135.507812 -116.816406 C 123.433594 -115.246094 111.789062 -112.976562 100.75 -110.070312 C 100.816406 -110.304688 100.847656 -110.570312 100.816406 -110.804688 C 113.023438 -115.113281 125.667969 -118.453125 138.710938 -120.691406 C 137.578125 -119.519531 136.507812 -118.21875 135.507812 -116.816406 Z M 257.300781 -110.136719 C 246.257812 -113.042969 234.617188 -115.3125 222.507812 -116.882812 C 221.539062 -118.253906 220.507812 -119.519531 219.40625 -120.691406 C 232.316406 -118.453125 244.992188 -115.214844 257.269531 -110.90625 C 257.199219 -110.636719 257.199219 -110.40625 257.300781 -110.136719 Z M 262.738281 -108.667969 C 262.636719 -108.769531 262.503906 -108.867188 262.371094 -109.003906 C 263.105469 -108.703125 263.871094 -108.433594 264.605469 -108.132812 C 264.007812 -108.300781 263.371094 -108.5 262.738281 -108.667969 Z M 331.457031 -49.59375 C 324.652344 -52.867188 317.414062 -55.972656 309.707031 -58.84375 C 303.335938 -61.183594 296.796875 -63.351562 290.09375 -65.324219 C 288.492188 -70.03125 286.65625 -74.472656 284.65625 -78.714844 C 299.097656 -74.40625 312.476562 -69.265625 324.417969 -63.285156 C 327.019531 -58.980469 329.355469 -54.402344 331.457031 -49.59375 Z M 354.707031 -44.117188 C 357.777344 -39.609375 360.613281 -35 363.179688 -30.292969 C 355.074219 -36.570312 345.703125 -42.449219 335.125 -47.792969 C 333.226562 -52.433594 331.089844 -56.875 328.753906 -61.082031 C 338.460938 -55.941406 347.167969 -50.296875 354.707031 -44.117188 Z M 368.25 -26.121094 C 366.816406 -29.058594 365.25 -31.929688 363.613281 -34.800781 C 367.117188 -30.359375 370.488281 -25.851562 373.65625 -21.242188 C 371.921875 -22.878906 370.121094 -24.550781 368.25 -26.121094 Z M 393.335938 56.996094 C 391.234375 54.925781 389.035156 52.921875 386.730469 50.886719 C 386.5 34.589844 384.230469 18.796875 379.925781 3.703125 C 388.367188 11.515625 395.003906 19.929688 399.640625 28.847656 C 401.945312 34.992188 403.980469 41.234375 405.746094 47.582031 C 407.015625 56.628906 407.648438 65.714844 407.679688 74.863281 C 403.878906 68.753906 399.109375 62.808594 393.335938 56.996094 Z M 385.199219 112.597656 C 383.464844 110.828125 381.59375 109.125 379.695312 107.457031 C 380.058594 106.054688 380.425781 104.652344 380.726562 103.28125 C 384.5625 87.183594 386.5 71.421875 386.664062 56.097656 C 388 57.296875 389.300781 58.535156 390.535156 59.800781 C 397.90625 67.148438 403.578125 74.796875 407.582031 82.609375 C 407.046875 99.007812 404.546875 115.4375 400.140625 131.597656 C 396.339844 125.085938 391.335938 118.742188 385.199219 112.597656 Z M 390.433594 159.851562 C 386.832031 153.773438 382.128906 147.894531 376.425781 142.152344 C 374.488281 140.25 372.488281 138.410156 370.386719 136.542969 C 373.722656 127.824219 376.625 119.078125 378.992188 110.292969 C 380.460938 111.664062 381.929688 113.03125 383.363281 114.433594 C 390.066406 121.148438 395.339844 128.09375 399.175781 135.171875 C 396.773438 143.488281 393.835938 151.734375 390.433594 159.851562 Z M 406.679688 169 C 404.445312 175.011719 402.011719 180.753906 399.375 186.296875 C 398.609375 178.25 396.171875 170.371094 392.035156 162.6875 C 395.472656 154.742188 398.441406 146.726562 400.910156 138.578125 C 404.878906 146.960938 406.878906 155.574219 406.878906 164.359375 C 406.878906 165.894531 406.8125 167.464844 406.679688 169 Z M 399.609375 191.742188 C 400.808594 189.402344 401.945312 187 403.078125 184.5625 C 401.945312 188 400.777344 191.375 399.507812 194.78125 C 399.574219 193.746094 399.609375 192.777344 399.609375 191.742188 Z M 296.996094 302.472656 C 298.597656 298.667969 299.433594 294.792969 299.566406 290.785156 C 314.878906 282.804688 330.789062 272.554688 345.902344 259.628906 C 345.46875 266.210938 343.398438 272.722656 339.863281 279.03125 C 326.585938 288.816406 311.910156 296.5625 296.996094 302.472656 Z M 274.148438 327.386719 C 273.945312 327.453125 273.746094 327.554688 273.546875 327.585938 C 276.984375 325.382812 280.152344 323.113281 282.988281 320.675781 C 287.824219 319.238281 292.628906 317.5 297.296875 315.597656 C 289.792969 319.9375 282.085938 323.878906 274.148438 327.386719 Z M 74.796875 320.574219 C 77.53125 322.976562 80.601562 325.25 83.9375 327.386719 C 83.871094 327.386719 83.804688 327.351562 83.734375 327.320312 C 75.863281 323.847656 68.125 319.90625 60.652344 315.53125 C 65.253906 317.433594 69.992188 319.136719 74.796875 320.574219 Z M 12.148438 259.628906 C 27.261719 272.519531 43.171875 282.773438 58.484375 290.753906 C 58.582031 294.726562 59.417969 298.632812 60.984375 302.441406 C 46.109375 296.496094 31.429688 288.78125 18.152344 279 C 14.617188 272.6875 12.550781 266.175781 12.148438 259.628906 Z M -41.59375 191.640625 C -41.59375 192.675781 -41.523438 193.679688 -41.492188 194.746094 C -42.792969 191.273438 -43.992188 187.800781 -45.128906 184.292969 C -43.992188 186.800781 -42.824219 189.269531 -41.59375 191.640625 Z M -12.335938 136.507812 C -14.4375 138.378906 -16.472656 140.214844 -18.375 142.152344 C -24.113281 147.863281 -28.75 153.773438 -32.351562 159.785156 C -35.886719 151.402344 -38.890625 142.886719 -41.359375 134.269531 C -36.519531 125.621094 -29.648438 117.40625 -21.042969 109.726562 C -18.675781 118.675781 -15.738281 127.625 -12.335938 136.507812 Z M 16.085938 85.148438 C 17.953125 94.53125 20.222656 103.984375 22.890625 113.398438 C 10.3125 119.710938 -0.828125 126.855469 -10.203125 134.703125 C -13.605469 125.753906 -16.507812 116.773438 -18.839844 107.824219 C -9.132812 99.507812 2.609375 91.925781 16.085938 85.148438 Z M 14.683594 -20.742188 C 11.949219 -8.121094 10.3125 5.503906 10.015625 20.097656 C 9.945312 21.933594 9.980469 23.769531 9.980469 25.609375 C -3.664062 32.417969 -15.773438 40.132812 -25.945312 48.617188 C -25.511719 32.050781 -22.945312 16.058594 -18.207031 0.796875 C -8.96875 -7.050781 2.109375 -14.265625 14.683594 -20.742188 Z M 15.453125 -24.28125 C 3.207031 -18.070312 -7.597656 -11.226562 -16.738281 -3.878906 C -14.304688 -10.925781 -11.4375 -17.804688 -8.101562 -24.515625 C 0.304688 -31.730469 10.3125 -38.339844 21.621094 -44.285156 C 19.222656 -37.972656 17.121094 -31.296875 15.453125 -24.28125 Z M 62.019531 -42.382812 C 52.445312 -39.578125 43.238281 -36.40625 34.566406 -32.929688 C 28.996094 -30.660156 23.65625 -28.289062 18.554688 -25.820312 C 20.355469 -32.929688 22.523438 -39.742188 25.09375 -46.089844 C 37.636719 -52.398438 51.746094 -57.875 66.992188 -62.417969 C 65.023438 -56.171875 63.320312 -49.496094 62.019531 -42.382812 Z M 120.5625 -73.871094 C 119.53125 -67.59375 118.664062 -61.015625 118.027344 -54.238281 C 99.449219 -51.664062 81.566406 -47.992188 64.820312 -43.214844 C 66.222656 -50.394531 67.957031 -57.074219 70.058594 -63.320312 C 85.804688 -67.859375 102.75 -71.402344 120.5625 -73.871094 Z M 123.765625 -89.367188 C 122.734375 -85.292969 121.832031 -81.019531 120.996094 -76.511719 C 103.617188 -74.140625 86.839844 -70.699219 71.058594 -66.226562 C 72.761719 -70.96875 74.628906 -75.441406 76.730469 -79.648438 C 91.441406 -83.824219 107.253906 -87.097656 123.765625 -89.367188 Z M 177.707031 -95.679688 C 160.394531 -95.644531 143.414062 -94.542969 127.167969 -92.472656 C 129.738281 -101.320312 132.972656 -108.769531 136.84375 -114.34375 C 150.085938 -116.082031 163.761719 -116.984375 177.707031 -117.050781 Z M 230.914062 -92.472656 C 214.636719 -94.542969 197.65625 -95.644531 180.308594 -95.679688 L 180.308594 -117.050781 C 194.320312 -117.015625 207.996094 -116.113281 221.140625 -114.445312 C 225.078125 -108.835938 228.277344 -101.386719 230.914062 -92.472656 Z M 237.050781 -76.542969 C 236.25 -81.019531 235.351562 -85.324219 234.285156 -89.398438 C 250.828125 -87.128906 266.609375 -83.855469 281.320312 -79.683594 C 283.421875 -75.476562 285.320312 -70.96875 287.023438 -66.226562 C 271.210938 -70.734375 254.464844 -74.171875 237.050781 -76.542969 Z M 293.226562 -43.316406 C 276.617188 -48.027344 258.769531 -51.730469 240.054688 -54.304688 C 239.386719 -61.082031 238.554688 -67.628906 237.484375 -73.871094 C 255.332031 -71.433594 272.277344 -67.859375 288.023438 -63.351562 C 290.09375 -57.109375 291.828125 -50.464844 293.226562 -43.316406 Z M 339.496094 -25.984375 C 326.386719 -32.332031 311.808594 -37.875 296.03125 -42.480469 C 294.695312 -49.59375 293.0625 -56.207031 291.058594 -62.453125 C 306.339844 -57.875 320.414062 -52.433594 332.957031 -46.15625 C 335.527344 -39.8125 337.695312 -33.066406 339.496094 -25.984375 Z M 342.597656 -24.484375 C 340.898438 -31.460938 338.828125 -38.074219 336.425781 -44.320312 C 347.734375 -38.40625 357.710938 -31.796875 366.117188 -24.582031 C 369.417969 -17.972656 372.320312 -11.125 374.722656 -4.144531 C 365.515625 -11.527344 354.707031 -18.371094 342.597656 -24.484375 Z M 348.101562 25.574219 C 348.101562 23.769531 348.101562 21.933594 348.070312 20.097656 C 347.734375 5.335938 346.101562 -8.488281 343.300781 -21.242188 C 355.84375 -14.796875 366.917969 -7.550781 376.125 0.328125 C 380.929688 15.757812 383.597656 31.886719 384.03125 48.582031 C 373.824219 40.132812 361.746094 32.417969 348.101562 25.574219 Z M 335.160156 113.398438 C 337.828125 104.082031 340.0625 94.765625 341.898438 85.515625 C 355.410156 92.363281 367.117188 100.007812 376.757812 108.355469 C 374.457031 117.140625 371.621094 125.988281 368.285156 134.738281 C 358.878906 126.855469 347.734375 119.746094 335.160156 113.398438 Z M 356.941406 160.652344 C 348.203125 153.339844 337.863281 146.691406 326.1875 140.816406 C 329.253906 132.566406 331.992188 124.285156 334.425781 115.9375 C 346.96875 122.28125 358.011719 129.429688 367.285156 137.308594 C 364.214844 145.15625 360.777344 152.9375 356.941406 160.652344 Z M 378.125 184.863281 C 374.691406 178.984375 370.1875 173.242188 364.617188 167.632812 C 362.847656 165.859375 360.914062 164.125 358.976562 162.421875 C 362.847656 154.742188 366.285156 146.960938 369.386719 139.144531 C 371.152344 140.75 372.921875 142.351562 374.554688 143.988281 C 380.660156 150.132812 385.496094 156.410156 389.132812 162.890625 C 385.863281 170.300781 382.230469 177.648438 378.125 184.863281 Z M 242.324219 308.953125 C 242.121094 306.984375 241.589844 305.011719 240.722656 303.074219 C 259.667969 295.761719 277.382812 286.847656 293.695312 276.425781 C 295.761719 280.566406 296.832031 284.84375 296.929688 289.21875 C 276.449219 299.734375 257.101562 306.082031 242.324219 308.953125 Z M 241.355469 316.734375 C 241.957031 315.097656 242.289062 313.359375 242.390625 311.625 C 257.101562 308.753906 276.347656 302.542969 296.863281 292.15625 C 296.5625 296.097656 295.464844 300.003906 293.59375 303.777344 C 275.613281 310.554688 257.535156 314.796875 241.355469 316.734375 Z M 228.078125 331.558594 C 230.378906 330.125 232.449219 328.554688 234.25 326.917969 C 247.726562 327.820312 262.339844 326.183594 276.75 322.445312 C 272.8125 325.316406 268.34375 328.019531 263.503906 330.457031 C 252.363281 333.164062 243.390625 333.230469 228.078125 331.558594 Z M 147.316406 339.007812 C 156.757812 341.746094 167.632812 343.316406 179.007812 343.316406 C 184.644531 343.316406 190.082031 342.949219 195.253906 342.28125 C 196.988281 343.984375 198.789062 345.386719 200.625 346.421875 C 193.484375 347.054688 186.28125 347.421875 179.007812 347.421875 C 163.0625 347.421875 147.351562 345.820312 132.039062 342.746094 C 137.375 342.28125 142.3125 341.042969 147.316406 339.007812 Z M 123.898438 326.917969 C 125.703125 328.554688 127.769531 330.125 130.070312 331.558594 C 114.660156 333.230469 105.6875 333.164062 94.476562 330.425781 C 89.640625 327.988281 85.203125 325.316406 81.269531 322.410156 C 95.710938 326.183594 110.390625 327.820312 123.898438 326.917969 Z M 115.660156 311.625 C 115.761719 313.328125 116.09375 315.0625 116.695312 316.734375 C 100.515625 314.761719 82.402344 310.554688 64.421875 303.742188 C 62.554688 299.96875 61.453125 296.097656 61.1875 292.15625 C 81.667969 302.507812 100.914062 308.753906 115.660156 311.625 Z M 64.320312 276.359375 C 80.667969 286.847656 98.378906 295.761719 117.328125 303.042969 C 116.425781 304.980469 115.894531 306.949219 115.695312 308.953125 C 100.914062 306.046875 81.601562 299.703125 61.085938 289.183594 C 61.1875 284.777344 62.320312 280.5 64.320312 276.359375 Z M -21.542969 187.464844 C -25.378906 194.679688 -27.613281 202.09375 -28.214844 209.707031 C -32.050781 203.761719 -35.652344 197.617188 -38.957031 191.074219 C -38.855469 182.390625 -36.6875 173.941406 -32.652344 165.828125 C -29.347656 173.175781 -25.644531 180.386719 -21.542969 187.464844 Z M -0.894531 162.386719 C -2.894531 164.125 -4.796875 165.859375 -6.597656 167.632812 C -12.136719 173.207031 -16.640625 178.953125 -20.074219 184.828125 C -24.144531 177.617188 -27.816406 170.300781 -31.050781 162.890625 C -26.378906 154.507812 -19.707031 146.558594 -11.335938 139.144531 C -8.234375 146.925781 -4.765625 154.707031 -0.894531 162.386719 Z M 31.898438 140.78125 C 20.1875 146.660156 9.847656 153.304688 1.105469 160.617188 C -2.730469 152.9375 -6.164062 145.125 -9.234375 137.308594 C -0.0585938 129.5625 11.015625 122.414062 23.65625 116.039062 C 26.09375 124.320312 28.828125 132.601562 31.898438 140.78125 Z M 69.058594 98.507812 C 70.859375 106.953125 72.894531 115.503906 75.164062 124.085938 C 60.285156 128.394531 46.574219 133.601562 34.230469 139.613281 C 31.195312 131.398438 28.460938 123.152344 26.027344 114.867188 C 38.902344 108.589844 53.378906 103.082031 69.058594 98.507812 Z M 63.1875 66.914062 C 64.65625 76.398438 66.390625 86.050781 68.457031 95.835938 C 52.8125 100.375 38.300781 105.851562 25.292969 112.230469 C 22.625 102.78125 20.355469 93.328125 18.488281 83.945312 C 31.898438 77.402344 46.910156 71.65625 63.1875 66.914062 Z M 58.148438 11.179688 C 58.484375 27.878906 60.050781 45.675781 62.789062 64.210938 C 46.542969 68.917969 31.496094 74.597656 17.953125 81.207031 C 14.550781 63.308594 12.75 45.675781 12.550781 28.746094 C 26.191406 22 41.503906 16.125 58.148438 11.179688 Z M 59.050781 -20.375 C 58.285156 -11.660156 57.984375 -2.476562 58.050781 7.039062 C 41.636719 11.847656 26.359375 17.660156 12.582031 24.304688 C 12.582031 22.9375 12.582031 21.535156 12.617188 20.164062 C 12.949219 4.96875 14.683594 -9.253906 17.6875 -22.277344 C 30.863281 -28.789062 45.539062 -34.535156 61.484375 -39.34375 C 60.453125 -33.296875 59.617188 -27.019531 59.050781 -20.375 Z M 116.0625 -5.113281 C 96.578125 -2.476562 78 1.363281 60.652344 6.273438 C 60.585938 -2.777344 60.917969 -11.625 61.652344 -20.175781 C 62.253906 -27.15625 63.152344 -33.832031 64.253906 -40.109375 C 80.96875 -45.019531 98.949219 -48.859375 117.761719 -51.5 C 116.460938 -36.539062 115.960938 -20.644531 116.0625 -5.113281 Z M 177.707031 -55.773438 L 177.707031 -9.253906 C 157.292969 -9.1875 137.34375 -7.851562 118.195312 -5.382812 C 118.164062 -21.945312 118.761719 -37.605469 120.0625 -51.832031 C 138.609375 -54.304688 157.925781 -55.671875 177.707031 -55.773438 Z M 177.707031 -77.777344 L 177.707031 -58.378906 C 158.257812 -58.3125 138.976562 -57.007812 120.332031 -54.570312 C 121.03125 -61.449219 121.898438 -68.0625 123 -74.171875 C 140.511719 -76.476562 158.859375 -77.710938 177.707031 -77.777344 Z M 177.707031 -80.417969 C 159.160156 -80.351562 141.011719 -79.148438 123.464844 -76.878906 C 124.332031 -81.386719 125.300781 -85.695312 126.367188 -89.699219 C 142.882812 -91.871094 160.09375 -93.007812 177.707031 -93.074219 Z M 180.308594 -80.417969 L 180.308594 -93.074219 C 197.957031 -93.007812 215.167969 -91.871094 231.679688 -89.734375 C 232.78125 -85.726562 233.714844 -81.417969 234.582031 -76.878906 C 217.039062 -79.148438 198.855469 -80.351562 180.308594 -80.417969 Z M 180.308594 -58.378906 L 180.308594 -77.777344 C 199.191406 -77.746094 217.539062 -76.511719 235.085938 -74.207031 C 236.152344 -68.0625 237.019531 -61.515625 237.71875 -54.636719 C 219.339844 -57.042969 200.058594 -58.3125 180.308594 -58.378906 Z M 239.855469 -5.382812 C 220.738281 -7.886719 200.757812 -9.222656 180.308594 -9.253906 L 180.308594 -55.773438 C 200.191406 -55.707031 219.503906 -54.371094 237.988281 -51.964844 C 239.320312 -37.707031 239.921875 -21.976562 239.855469 -5.382812 Z M 296.429688 -20.175781 C 297.164062 -11.625 297.464844 -2.777344 297.398438 6.273438 C 280.085938 1.363281 261.503906 -2.476562 242.023438 -5.113281 C 242.089844 -20.710938 241.621094 -36.636719 240.289062 -51.664062 C 259.167969 -49.0625 277.082031 -45.289062 293.730469 -40.511719 C 294.894531 -34.066406 295.796875 -27.289062 296.429688 -20.175781 Z M 300 7.039062 C 300.101562 -2.476562 299.765625 -11.660156 299.03125 -20.375 C 298.433594 -27.121094 297.597656 -33.53125 296.53125 -39.710938 C 312.476562 -34.96875 327.152344 -29.292969 340.296875 -22.78125 C 343.332031 -9.589844 345.101562 4.769531 345.46875 20.164062 C 345.5 21.535156 345.46875 22.9375 345.5 24.304688 C 331.722656 17.625 316.445312 11.847656 300 7.039062 Z M 295.230469 64.445312 C 298.03125 45.777344 299.601562 27.878906 299.933594 11.046875 C 316.480469 15.957031 331.789062 21.867188 345.5 28.679688 C 345.335938 45.710938 343.464844 63.507812 340.0625 81.542969 C 326.554688 74.898438 311.476562 69.1875 295.230469 64.445312 Z M 289.59375 95.867188 C 291.660156 86.148438 293.363281 76.601562 294.828125 67.214844 C 296.796875 67.785156 298.800781 68.316406 300.765625 68.917969 C 314.84375 73.359375 327.789062 78.503906 339.496094 84.28125 C 337.660156 93.5625 335.425781 102.914062 332.792969 112.230469 C 319.75 105.886719 305.269531 100.375 289.59375 95.867188 Z M 282.921875 124.085938 C 285.1875 115.46875 287.222656 106.886719 289.023438 98.40625 C 304.671875 102.914062 319.113281 108.425781 332.058594 114.769531 C 329.621094 123.082031 326.886719 131.398438 323.851562 139.648438 C 311.507812 133.636719 297.765625 128.394531 282.921875 124.085938 Z M 314.976562 161.554688 C 309.707031 173.441406 303.902344 184.929688 297.566406 195.980469 C 287.558594 191.074219 276.414062 186.832031 264.371094 183.324219 C 267.941406 173.675781 271.34375 163.722656 274.515625 153.570312 C 277.316406 144.523438 279.917969 135.539062 282.285156 126.65625 C 297.03125 130.898438 310.675781 136.074219 322.949219 142.085938 C 320.449219 148.628906 317.847656 155.140625 314.976562 161.554688 Z M 324.183594 212.878906 C 317.246094 207.101562 309.074219 201.824219 299.898438 197.152344 C 306.238281 186.0625 312.074219 174.542969 317.378906 162.621094 C 320.214844 156.210938 322.851562 149.765625 325.285156 143.253906 C 336.859375 149.128906 347.101562 155.742188 355.707031 163.023438 C 347.003906 180.152344 336.425781 196.882812 324.183594 212.878906 Z M 330.691406 218.789062 C 329.253906 217.355469 327.722656 215.953125 326.152344 214.582031 C 338.394531 198.621094 349.003906 181.921875 357.742188 164.792969 C 359.476562 166.363281 361.179688 167.898438 362.746094 169.5 C 368.585938 175.34375 373.1875 181.324219 376.589844 187.464844 C 375.691406 189.035156 374.789062 190.605469 373.855469 192.140625 C 364.683594 207.003906 354.007812 220.792969 342.03125 233.417969 C 339.164062 228.375 335.394531 223.53125 330.691406 218.789062 Z M 286.789062 262.601562 C 285.890625 261.734375 284.921875 260.867188 283.953125 260.03125 C 298.265625 247.308594 311.808594 232.914062 324.050781 217.355469 C 324.21875 217.121094 324.386719 216.851562 324.550781 216.652344 C 326.054688 217.957031 327.488281 219.289062 328.820312 220.625 C 333.59375 225.402344 337.328125 230.34375 340.128906 235.386719 C 326.621094 249.3125 311.375 261.769531 294.664062 272.652344 C 292.660156 269.214844 290.027344 265.875 286.789062 262.601562 Z M 235.449219 295.628906 C 235.25 295.429688 235.085938 295.292969 234.882812 295.128906 C 250.929688 286.34375 266.839844 274.992188 281.984375 261.769531 C 283.019531 262.636719 284.019531 263.539062 284.957031 264.472656 C 288.058594 267.613281 290.558594 270.816406 292.496094 274.089844 C 276.148438 284.542969 258.433594 293.457031 239.488281 300.738281 C 238.421875 298.96875 237.085938 297.265625 235.449219 295.628906 Z M 75.996094 261.699219 C 91.175781 274.957031 107.121094 286.3125 123.167969 295.09375 C 122.964844 295.292969 122.765625 295.429688 122.597656 295.628906 C 120.964844 297.265625 119.628906 298.96875 118.53125 300.738281 C 99.582031 293.457031 81.902344 284.507812 65.554688 274.089844 C 68.089844 269.714844 71.628906 265.574219 75.996094 261.699219 Z M 33.464844 216.621094 C 33.664062 216.851562 33.832031 217.121094 34.03125 217.355469 C 46.242188 232.914062 59.785156 247.308594 74.09375 259.996094 C 73.128906 260.867188 72.160156 261.734375 71.226562 262.601562 C 67.992188 265.839844 65.355469 269.214844 63.355469 272.652344 C 46.675781 261.769531 31.429688 249.277344 17.917969 235.386719 C 21.554688 228.773438 26.828125 222.464844 33.464844 216.621094 Z M 31.898438 214.550781 C 30.328125 215.917969 28.792969 217.355469 27.359375 218.789062 C 22.625 223.5 18.886719 228.375 16.019531 233.351562 C 4.007812 220.761719 -6.632812 207.003906 -15.773438 192.140625 C -16.738281 190.605469 -17.605469 189.035156 -18.542969 187.464844 C -14.105469 179.453125 -7.734375 171.871094 0.304688 164.792969 C 9.078125 181.890625 19.65625 198.585938 31.898438 214.550781 Z M 40.703125 162.621094 C 45.972656 174.511719 51.8125 186.03125 58.148438 197.117188 C 48.976562 201.824219 40.804688 207.101562 33.898438 212.847656 C 21.65625 196.882812 11.046875 180.152344 2.339844 163.023438 C 10.882812 155.84375 21.121094 149.230469 32.796875 143.355469 C 35.265625 149.832031 37.902344 156.242188 40.703125 162.621094 Z M 83.570312 153.570312 C 86.738281 163.722656 90.140625 173.675781 93.675781 183.324219 C 81.632812 186.800781 70.492188 191.074219 60.484375 195.980469 C 54.179688 184.929688 48.34375 173.441406 43.070312 161.554688 C 40.238281 155.175781 37.636719 148.695312 35.167969 142.152344 C 47.34375 136.242188 60.984375 131.03125 75.832031 126.757812 C 78.199219 135.605469 80.734375 144.589844 83.570312 153.570312 Z M 124.902344 116.503906 C 127.535156 136.707031 130.605469 156.410156 134.007812 174.878906 C 120.832031 176.679688 108.253906 179.25 96.480469 182.523438 C 89.839844 164.625 83.734375 145.558594 78.53125 125.988281 C 92.976562 121.914062 108.523438 118.742188 124.902344 116.503906 Z M 121.5 87.585938 C 122.398438 96.367188 123.433594 105.183594 124.535156 113.867188 C 108.15625 116.070312 92.476562 119.242188 77.832031 123.351562 C 75.597656 114.902344 73.5625 106.351562 71.726562 97.769531 C 87.207031 93.429688 103.917969 89.957031 121.5 87.585938 Z M 118.5625 55.328125 C 119.03125 61.4375 119.496094 67.050781 119.964844 71.992188 C 120.332031 76.300781 120.765625 80.640625 121.230469 84.949219 C 103.617188 87.285156 86.804688 90.726562 71.125 95.101562 C 69.09375 85.449219 67.289062 75.796875 65.824219 66.148438 C 82.234375 61.503906 99.949219 57.867188 118.5625 55.328125 Z M 118.394531 52.722656 C 99.78125 55.195312 82 58.800781 65.421875 63.476562 C 62.6875 45.445312 61.019531 27.578125 60.71875 10.414062 C 77.898438 5.472656 96.480469 1.5625 116.09375 -1.105469 C 116.261719 18.292969 117.261719 37.0625 118.394531 52.722656 Z M 177.707031 48.75 C 158.09375 48.78125 138.910156 50.050781 120.496094 52.421875 C 119.164062 33.957031 118.363281 15.824219 118.230469 -1.40625 C 137.210938 -3.945312 157.160156 -5.25 177.707031 -5.316406 Z M 237.550781 52.523438 C 219.171875 50.117188 199.957031 48.816406 180.308594 48.75 L 180.308594 -5.316406 C 200.757812 -5.28125 220.738281 -3.945312 239.855469 -1.441406 C 239.722656 15.824219 238.921875 33.988281 237.550781 52.523438 Z M 239.6875 52.789062 C 240.820312 37.09375 241.789062 18.328125 241.988281 -1.175781 C 261.472656 1.464844 280.050781 5.335938 297.363281 10.3125 C 297.03125 27.542969 295.363281 45.542969 292.628906 63.675781 C 276.082031 58.96875 258.300781 55.292969 239.6875 52.789062 Z M 236.851562 84.949219 C 237.285156 80.640625 237.71875 76.300781 238.121094 71.992188 C 238.554688 67.082031 239.019531 61.539062 239.488281 55.460938 C 257.867188 57.964844 275.582031 61.671875 292.226562 66.449219 C 290.726562 76 288.957031 85.550781 286.921875 95.101562 C 271.246094 90.726562 254.433594 87.285156 236.851562 84.949219 Z M 233.515625 113.867188 C 234.617188 105.152344 235.652344 96.367188 236.585938 87.519531 C 254.066406 89.890625 270.8125 93.261719 286.390625 97.636719 C 284.523438 106.285156 282.488281 114.867188 280.25 123.351562 C 265.574219 119.242188 249.929688 116.070312 233.515625 113.867188 Z M 224.042969 174.878906 C 227.445312 156.378906 230.546875 136.675781 233.183594 116.472656 C 249.460938 118.675781 265.039062 121.816406 279.585938 125.890625 C 274.347656 145.492188 268.210938 164.625 261.605469 182.558594 C 249.828125 179.25 237.21875 176.679688 224.042969 174.878906 Z M 238.121094 236.957031 C 229.8125 234.652344 220.941406 232.78125 211.667969 231.480469 C 215.871094 215.585938 219.90625 197.25 223.609375 177.449219 C 236.617188 179.21875 249.0625 181.757812 260.703125 184.996094 C 253.597656 204.03125 245.890625 221.628906 238.121094 236.957031 Z M 262.90625 246.273438 C 256.199219 243 248.828125 240.160156 240.855469 237.757812 C 248.726562 222.261719 256.398438 204.664062 263.472656 185.761719 C 275.382812 189.203125 286.421875 193.410156 296.296875 198.253906 C 286.355469 215.417969 275.148438 231.480469 262.90625 246.273438 Z M 265.273438 247.476562 C 277.484375 232.683594 288.691406 216.585938 298.632812 199.421875 C 307.707031 204.03125 315.746094 209.273438 322.582031 214.949219 C 322.382812 215.21875 322.183594 215.449219 321.984375 215.71875 C 309.773438 231.277344 296.230469 245.636719 281.984375 258.292969 C 277.183594 254.320312 271.578125 250.679688 265.273438 247.476562 Z M 239.652344 240.128906 C 247.425781 242.433594 254.664062 245.136719 261.171875 248.277344 C 249.261719 262.433594 236.351562 275.390625 222.609375 286.847656 C 219.472656 285.34375 216.035156 283.972656 212.367188 282.839844 C 221.273438 272.351562 230.582031 257.660156 239.652344 240.128906 Z M 211 234.050781 C 220.074219 235.285156 228.78125 237.089844 236.917969 239.359375 C 227.679688 257.292969 218.339844 271.953125 209.632812 282.039062 C 205.0625 280.769531 200.191406 279.765625 195.121094 279.097656 C 200.359375 268.980469 205.761719 253.386719 211 234.050781 Z M 180.308594 231.914062 C 190.015625 231.945312 199.492188 232.582031 208.597656 233.71875 C 203.292969 253.085938 197.757812 268.679688 192.320312 278.765625 C 188.449219 278.332031 184.414062 278.097656 180.308594 278.0625 Z M 165.730469 278.765625 C 160.292969 268.679688 154.757812 253.085938 149.484375 233.71875 C 158.492188 232.546875 167.964844 231.945312 177.707031 231.878906 L 177.707031 278.0625 C 173.636719 278.097656 169.601562 278.332031 165.730469 278.765625 Z M 148.453125 282.039062 C 139.746094 271.953125 130.40625 257.292969 121.164062 239.359375 C 129.269531 237.125 137.945312 235.320312 147.085938 234.050781 C 152.289062 253.417969 157.691406 268.980469 162.964844 279.097656 C 157.859375 279.734375 152.988281 280.734375 148.453125 282.039062 Z M 135.476562 286.847656 C 121.730469 275.390625 108.820312 262.433594 96.878906 248.308594 C 103.417969 245.203125 110.625 242.464844 118.429688 240.128906 C 127.503906 257.660156 136.808594 272.351562 145.683594 282.804688 C 142.015625 283.972656 138.578125 285.308594 135.476562 286.847656 Z M 92.777344 247.441406 C 86.503906 250.679688 80.867188 254.320312 76.0625 258.261719 C 61.820312 245.605469 48.277344 231.277344 36.101562 215.71875 C 35.867188 215.449219 35.667969 215.183594 35.464844 214.917969 C 42.238281 209.304688 50.3125 204.128906 59.453125 199.488281 C 69.390625 216.621094 80.566406 232.683594 92.777344 247.441406 Z M 117.195312 237.757812 C 109.253906 240.128906 101.851562 242.96875 95.179688 246.238281 C 82.9375 231.480469 71.761719 215.449219 61.820312 198.320312 C 71.628906 193.511719 82.667969 189.335938 94.609375 185.863281 C 101.683594 204.699219 109.355469 222.296875 117.195312 237.757812 Z M 146.382812 231.480469 C 137.109375 232.78125 128.269531 234.652344 119.964844 236.957031 C 112.191406 221.628906 104.519531 204.03125 97.414062 185.027344 C 108.988281 181.824219 121.398438 179.285156 134.476562 177.480469 C 138.175781 197.25 142.214844 215.585938 146.382812 231.480469 Z M 177.707031 174.511719 L 177.707031 229.277344 C 167.765625 229.34375 158.09375 230.011719 148.785156 231.179688 C 144.550781 215.285156 140.445312 196.949219 136.710938 177.179688 C 149.820312 175.476562 163.5625 174.578125 177.707031 174.511719 Z M 177.707031 112.898438 L 177.707031 171.90625 C 163.464844 171.9375 149.554688 172.875 136.242188 174.578125 C 132.773438 156.078125 129.671875 136.339844 127.035156 116.203125 C 143.246094 114.101562 160.226562 112.964844 177.707031 112.898438 Z M 177.707031 83.746094 L 177.707031 110.292969 C 160.195312 110.328125 143.113281 111.460938 126.703125 113.566406 C 125.566406 104.882812 124.535156 96.101562 123.601562 87.253906 C 140.914062 85.046875 159.027344 83.8125 177.707031 83.746094 Z M 177.707031 81.140625 C 159.058594 81.175781 140.8125 82.375 123.332031 84.648438 C 122.332031 74.761719 121.429688 64.84375 120.699219 55.0625 C 138.910156 52.691406 158.027344 51.421875 177.707031 51.355469 Z M 180.308594 81.140625 L 180.308594 51.386719 C 199.722656 51.453125 218.871094 52.789062 237.351562 55.195312 C 236.652344 64.945312 235.75 74.796875 234.71875 84.648438 C 217.238281 82.375 198.988281 81.175781 180.308594 81.140625 Z M 180.308594 110.292969 L 180.308594 83.746094 C 198.921875 83.8125 217.070312 84.980469 234.484375 87.21875 C 233.550781 96.066406 232.515625 104.882812 231.382812 113.601562 C 214.96875 111.460938 197.855469 110.328125 180.308594 110.292969 Z M 180.308594 171.90625 L 180.308594 112.898438 C 197.722656 112.933594 214.734375 114.066406 231.046875 116.171875 C 228.414062 136.339844 225.277344 156.078125 221.839844 174.609375 C 208.496094 172.875 194.554688 171.9375 180.308594 171.90625 Z M 180.308594 174.511719 C 194.421875 174.578125 208.164062 175.445312 221.375 177.148438 C 217.636719 196.949219 213.535156 215.285156 209.265625 231.210938 C 199.957031 230.011719 190.25 229.34375 180.308594 229.277344 Z M 125.199219 293.257812 C 109.1875 284.542969 93.175781 273.253906 78 259.964844 C 82.667969 256.191406 88.207031 252.683594 94.476562 249.511719 C 106.386719 263.671875 119.261719 276.59375 132.941406 288.148438 C 130.070312 289.683594 127.46875 291.386719 125.199219 293.257812 Z M 225.109375 288.148438 C 238.820312 276.628906 251.695312 263.671875 263.574219 249.511719 C 269.777344 252.683594 275.28125 256.191406 279.984375 260.066406 C 264.808594 273.289062 248.859375 284.574219 232.847656 293.292969 C 230.582031 291.421875 228.011719 289.71875 225.109375 288.148438 Z M 206.195312 345.820312 C 203.558594 345.21875 201.023438 343.847656 198.589844 341.777344 C 202.894531 341.078125 206.960938 340.140625 210.800781 339.039062 C 215.804688 341.042969 220.707031 342.28125 225.976562 342.746094 C 219.472656 344.050781 212.835938 345.050781 206.195312 345.820312 Z M 232.648438 322.945312 C 222.707031 332.929688 201.625 339.375 179.007812 339.375 C 156.390625 339.375 135.34375 332.929688 125.367188 322.945312 C 121.5 319.070312 119.53125 314.929688 119.53125 310.6875 C 119.53125 294.828125 146.21875 281.9375 179.007812 281.9375 C 201.625 281.9375 222.707031 288.414062 232.648438 298.402344 C 236.550781 302.273438 238.519531 306.414062 238.519531 310.6875 C 238.519531 314.929688 236.550781 319.070312 232.648438 322.945312 Z M -25.8125 213.480469 C -25.679688 205.464844 -23.644531 197.683594 -19.941406 190.171875 C -19.308594 191.308594 -18.675781 192.410156 -17.972656 193.542969 C -8.601562 208.773438 2.375 222.898438 14.71875 235.820312 C 11.75 241.699219 10.046875 247.742188 9.613281 253.921875 C -3.164062 242.464844 -15.273438 229.074219 -25.8125 213.480469 Z M 12.082031 256.125 C 12.25 249.8125 13.816406 243.703125 16.652344 237.824219 C 30.230469 251.648438 45.441406 264.105469 62.121094 274.957031 C 60.019531 279.164062 58.851562 283.472656 58.550781 287.882812 C 43.140625 279.734375 27.195312 269.28125 12.082031 256.125 Z M 73.09375 315.464844 C 70.425781 312.828125 68.257812 310.089844 66.488281 307.316406 C 84.269531 313.761719 102.082031 317.734375 117.960938 319.539062 C 118.863281 321.242188 119.996094 322.84375 121.398438 324.449219 C 106.988281 325.082031 91.308594 322.84375 76.128906 318.304688 C 75.097656 317.367188 74.027344 316.433594 73.09375 315.464844 Z M 111.457031 337.605469 C 108.921875 336.738281 106.421875 335.800781 104.019531 334.832031 C 112.390625 335.769531 121.03125 335.234375 133.972656 333.730469 C 136.84375 335.234375 139.945312 336.570312 143.316406 337.703125 C 136.210938 340.109375 129.105469 340.84375 120.429688 340.042969 C 120.398438 340.042969 120.332031 340.042969 120.332031 340.042969 C 117.363281 339.308594 114.394531 338.472656 111.457031 337.605469 Z M 246.558594 337.605469 C 243.625 338.472656 240.6875 339.273438 237.71875 340.042969 C 237.6875 340.042969 237.6875 340.042969 237.652344 340.042969 C 228.980469 340.84375 221.941406 340.109375 214.867188 337.738281 C 218.238281 336.570312 221.375 335.234375 224.210938 333.765625 C 237.050781 335.234375 245.660156 335.769531 254 334.832031 C 251.597656 335.800781 249.09375 336.738281 246.558594 337.605469 Z M 281.886719 318.304688 C 266.707031 322.84375 251.0625 325.082031 236.71875 324.449219 C 238.085938 322.84375 239.21875 321.242188 240.15625 319.539062 C 255.964844 317.734375 273.78125 313.796875 291.558594 307.351562 C 289.757812 310.089844 287.589844 312.828125 284.957031 315.464844 C 283.988281 316.433594 282.921875 317.367188 281.886719 318.304688 Z M 299.464844 287.914062 C 299.199219 283.472656 298 279.199219 295.898438 274.957031 C 312.609375 264.105469 327.820312 251.683594 341.398438 237.824219 C 344.300781 243.769531 345.800781 249.914062 345.933594 256.15625 C 330.824219 269.28125 314.878906 279.765625 299.464844 287.914062 Z M 348.4375 253.953125 C 348.003906 247.777344 346.300781 241.730469 343.300781 235.855469 C 355.707031 222.898438 366.683594 208.773438 376.058594 193.542969 C 376.726562 192.410156 377.359375 191.308594 378.027344 190.171875 C 381.761719 197.753906 383.730469 205.566406 383.828125 213.546875 C 373.289062 229.109375 361.214844 242.5 348.4375 253.953125 Z M 386.265625 209.773438 C 385.632812 202.160156 383.394531 194.746094 379.625 187.5 C 383.695312 180.386719 387.433594 173.175781 390.703125 165.828125 C 394.804688 174.074219 396.90625 182.492188 397.007812 191.140625 C 393.671875 197.652344 390.066406 203.863281 386.265625 209.773438 Z M 377.492188 105.484375 C 367.617188 97.101562 355.808594 89.488281 342.5 82.746094 C 345.933594 64.777344 347.835938 47.011719 348.070312 29.949219 C 361.914062 36.996094 374.023438 45.007812 384.097656 53.792969 C 384.097656 69.652344 382.160156 85.984375 378.191406 102.679688 C 377.992188 103.613281 377.726562 104.550781 377.492188 105.484375 Z M 261.472656 -106.296875 C 268.574219 -99.917969 274.613281 -92.070312 279.652344 -82.820312 C 265.171875 -86.828125 249.695312 -89.933594 233.550781 -92.105469 C 231.179688 -100.621094 228.210938 -108.066406 224.542969 -113.976562 C 237.453125 -112.175781 249.828125 -109.601562 261.472656 -106.296875 Z M 96.480469 -106.195312 C 108.121094 -109.503906 120.5625 -112.109375 133.507812 -113.945312 C 129.835938 -108.035156 126.902344 -100.585938 124.535156 -92.105469 C 108.386719 -89.902344 92.910156 -86.796875 78.433594 -82.820312 C 83.402344 -91.972656 89.40625 -99.820312 96.480469 -106.195312 Z M -20.140625 102.679688 C -24.078125 85.984375 -26.011719 69.621094 -26.046875 53.757812 C -16.074219 45.109375 -3.964844 37.128906 9.980469 30.050781 C 10.246094 46.980469 12.117188 64.542969 15.519531 82.375 C 2.175781 89.089844 -9.632812 96.636719 -19.542969 104.984375 C -19.742188 104.214844 -19.941406 103.449219 -20.140625 102.679688 Z M -49.566406 164.359375 C -49.566406 155.175781 -47.328125 146.226562 -43.09375 137.675781 C -40.589844 146.09375 -37.523438 154.441406 -33.984375 162.65625 C -38.121094 170.300781 -40.558594 178.183594 -41.324219 186.199219 C -44.328125 179.917969 -47.0625 173.375 -49.496094 166.527344 C -49.53125 165.828125 -49.566406 165.09375 -49.566406 164.359375 Z M -37.222656 205.265625 C -37.921875 202.59375 -38.390625 199.921875 -38.65625 197.21875 C -35.453125 203.128906 -32.050781 208.804688 -28.449219 214.183594 C -28.449219 214.214844 -28.449219 214.25 -28.449219 214.28125 C -28.449219 218.121094 -28.015625 221.929688 -27.179688 225.703125 C -30.882812 219.058594 -34.21875 212.246094 -37.222656 205.265625 Z M -10.335938 251.582031 C -10.5 251.414062 -10.667969 251.28125 -10.867188 251.214844 C -14.40625 246.40625 -17.707031 241.464844 -20.84375 236.421875 C -23.578125 230.445312 -25.210938 224.332031 -25.679688 218.15625 C -15.136719 233.183594 -3.164062 246.140625 9.445312 257.226562 C 9.480469 263.335938 10.816406 269.382812 13.382812 275.257812 C 4.644531 268.3125 -3.429688 260.464844 -10.335938 251.582031 Z M 30.761719 294.859375 C 27.328125 291.589844 24.324219 288.214844 21.824219 284.742188 C 34.664062 293.457031 48.542969 300.4375 62.585938 305.847656 C 64.523438 309.488281 67.125 312.992188 70.425781 316.433594 C 59.683594 312.726562 49.378906 307.882812 40.070312 302.074219 C 36.933594 299.734375 33.832031 297.367188 30.761719 294.859375 Z M 327.289062 294.859375 C 324.152344 297.398438 320.949219 299.871094 317.714844 302.242188 C 308.441406 308.050781 298.132812 312.828125 287.457031 316.5 C 290.726562 313.128906 293.363281 309.554688 295.363281 305.878906 C 309.40625 300.503906 323.285156 293.523438 336.128906 284.808594 C 333.660156 288.25 330.691406 291.621094 327.289062 294.859375 Z M 368.886719 251.214844 C 368.71875 251.28125 368.550781 251.414062 368.417969 251.582031 C 361.480469 260.5 353.375 268.347656 344.632812 275.324219 C 347.203125 269.414062 348.535156 263.371094 348.570312 257.257812 C 361.179688 246.171875 373.15625 233.214844 383.695312 218.253906 C 383.230469 224.433594 381.5625 230.511719 378.859375 236.488281 C 375.722656 241.496094 372.421875 246.40625 368.886719 251.214844 Z M 385.199219 225.703125 C 386.03125 221.960938 386.464844 218.121094 386.464844 214.28125 C 390.066406 208.871094 393.46875 203.261719 396.671875 197.316406 C 396.40625 199.988281 395.9375 202.628906 395.273438 205.300781 C 392.238281 212.246094 388.902344 219.089844 385.199219 225.703125 Z M 394.070312 15.253906 C 389.699219 9.578125 384.429688 4.136719 378.460938 -1.074219 C 376.390625 -7.519531 373.957031 -13.863281 371.152344 -20.042969 C 375.457031 -15.902344 379.292969 -11.625 382.5625 -7.152344 C 386.832031 0.09375 390.636719 7.609375 394.070312 15.253906 Z M 321.882812 -67.425781 C 310.074219 -73.003906 297.0625 -77.847656 283.121094 -81.851562 C 278.582031 -90.667969 273.179688 -98.28125 266.875 -104.761719 C 276.148438 -101.890625 284.921875 -98.515625 293.0625 -94.742188 C 296.230469 -92.972656 299.367188 -91.171875 302.46875 -89.234375 C 309.808594 -83.222656 316.3125 -75.910156 321.882812 -67.425781 Z M 214.667969 -121.492188 C 216.167969 -120.289062 217.570312 -118.921875 218.9375 -117.316406 C 206.429688 -118.820312 193.519531 -119.621094 180.308594 -119.6875 L 180.308594 -124.128906 C 191.917969 -124.097656 203.394531 -123.195312 214.667969 -121.492188 Z M 177.707031 -124.164062 L 177.707031 -119.6875 C 164.5625 -119.621094 151.621094 -118.785156 139.113281 -117.285156 C 140.445312 -118.886719 141.878906 -120.289062 143.382812 -121.492188 C 154.589844 -123.195312 166.066406 -124.097656 177.707031 -124.164062 Z M -24.34375 -7.285156 C -21.109375 -11.660156 -17.375 -15.902344 -13.136719 -19.941406 C -15.972656 -13.695312 -18.40625 -7.285156 -20.476562 -0.738281 C -26.546875 4.503906 -31.785156 10.046875 -36.15625 15.722656 C -32.617188 7.808594 -28.683594 0.128906 -24.34375 -7.285156 Z M -56.46875 107.15625 C -56.035156 100.578125 -54.5 94.132812 -51.898438 87.851562 C -51.03125 103.316406 -48.398438 118.742188 -44.160156 133.9375 C -48.496094 141.917969 -51.066406 150.132812 -51.867188 158.582031 C -54.933594 143.285156 -56.535156 127.558594 -56.535156 111.628906 C -56.535156 110.128906 -56.503906 108.625 -56.46875 107.15625 Z M -60.539062 111.0625 C -60.539062 111.230469 -60.507812 111.363281 -60.4375 111.53125 C -60.4375 111.5625 -60.472656 111.597656 -60.472656 111.628906 C -60.472656 175.644531 -35.554688 235.855469 9.679688 281.136719 C 54.914062 326.417969 115.027344 351.328125 179.007812 351.328125 C 310.976562 351.328125 418.355469 243.902344 418.488281 111.828125 C 418.589844 111.597656 418.65625 111.328125 418.65625 111.0625 C 418.65625 108.957031 418.523438 106.886719 418.324219 104.816406 C 416.621094 43.339844 391.96875 -14.230469 348.335938 -57.875 C 303.101562 -103.160156 242.988281 -128.101562 179.007812 -128.101562 C 115.058594 -128.101562 54.914062 -103.160156 9.679688 -57.875 C -34.21875 -13.929688 -58.90625 44.039062 -60.304688 105.984375 C -60.472656 107.6875 -60.539062 109.359375 -60.539062 111.0625 " fill-opacity="1" fill-rule="nonzero"/></g><g clip-path="url(#1dfdfb521c)"><path fill="#ffffff" d="M 432.535156 158.3125 C 428.898438 158.613281 426.5625 161.050781 427.296875 163.722656 C 428.03125 166.429688 431.566406 168.367188 435.203125 168.066406 C 460.621094 165.929688 481.035156 162.085938 495.082031 156.609375 C 509.992188 150.800781 518.164062 143.054688 518.164062 133.402344 C 518.164062 113.367188 480.003906 90.125 418.355469 68.785156 C 358.84375 48.183594 276.75 28.679688 186.179688 15.222656 C 140.414062 8.441406 96.914062 3.835938 57.382812 1.296875 C 0.140625 -2.375 -48.898438 -1.640625 -84.289062 3.167969 C -121.851562 8.277344 -144.769531 18.328125 -147.136719 33.085938 C -147.273438 33.957031 -147.339844 34.824219 -147.339844 35.660156 C -147.339844 43.972656 -141.132812 52.65625 -129.660156 61.4375 C -118.617188 69.820312 -102.539062 78.46875 -82.324219 87.019531 C -78.988281 88.421875 -74.949219 87.71875 -73.316406 85.382812 C -71.679688 83.078125 -73.050781 80.074219 -76.386719 78.636719 C -95.367188 70.621094 -110.34375 62.609375 -120.316406 54.992188 C -129.125 48.28125 -133.894531 42.039062 -133.894531 36.527344 C -133.894531 35.992188 -133.828125 35.492188 -133.761719 35.058594 C -132.09375 24.671875 -112.777344 17.160156 -80.789062 12.816406 C -46.628906 8.144531 1.207031 7.507812 57.382812 11.082031 C 96.480469 13.585938 139.511719 18.160156 184.644531 24.871094 C 274.113281 38.128906 355.042969 57.332031 413.519531 77.566406 C 469.828125 97.070312 504.6875 116.9375 504.6875 132.535156 C 504.6875 138.511719 498.785156 143.652344 487.976562 147.863281 C 475.265625 152.804688 456.351562 156.308594 432.535156 158.3125 " fill-opacity="1" fill-rule="nonzero"/></g><g clip-path="url(#6376623816)"><path fill="#0e2b64" d="M 293.148438 106.675781 C 293.148438 106.675781 293.148438 106.675781 293.144531 106.675781 Z M 293.269531 119.070312 Z M 284.152344 125.949219 L 284.023438 126.050781 L 284.128906 126.121094 Z M 288.757812 132.144531 L 288.722656 132.144531 L 288.710938 132.34375 L 288.722656 132.144531 Z M 288.710938 132.34375 Z M 272.65625 132.484375 C 272.550781 132.484375 272.449219 132.492188 272.347656 132.5 C 272.449219 132.492188 272.550781 132.484375 272.65625 132.484375 C 272.761719 132.484375 272.867188 132.492188 272.972656 132.5 C 272.867188 132.492188 272.761719 132.484375 272.65625 132.484375 Z M 275.792969 132.5 C 275.765625 132.5 275.730469 132.507812 275.6875 132.523438 C 275.730469 132.507812 275.765625 132.5 275.792969 132.5 C 275.820312 132.5 275.839844 132.507812 275.851562 132.523438 C 275.839844 132.507812 275.820312 132.5 275.792969 132.5 Z M 276.070312 133.625 L 276.074219 133.625 Z M 283.417969 126.929688 L 276.785156 134.171875 L 276.902344 134.3125 L 277.179688 134.03125 L 283.5625 127.082031 L 283.425781 126.9375 Z M 282.605469 139.664062 C 282.597656 139.664062 282.589844 139.664062 282.578125 139.664062 C 282.589844 139.664062 282.597656 139.664062 282.605469 139.664062 C 282.613281 139.664062 282.625 139.664062 282.632812 139.664062 C 282.625 139.664062 282.613281 139.664062 282.605469 139.664062 Z M 291.726562 141.167969 Z M 268.09375 143.480469 C 268.097656 143.480469 268.097656 143.480469 268.097656 143.480469 C 268.097656 143.480469 268.097656 143.480469 268.101562 143.480469 Z M 267.152344 144.128906 C 267.152344 144.128906 267.15625 144.128906 267.15625 144.128906 Z M 267.058594 144.128906 C 267.058594 144.128906 267.054688 144.128906 267.054688 144.128906 C 267.054688 144.128906 267.058594 144.128906 267.058594 144.128906 Z M 293.121094 106.558594 C 293.421875 106.558594 293.890625 106.851562 294.535156 107.4375 C 294.828125 107.699219 295 108.03125 295.054688 108.429688 C 295.125 108.789062 295.136719 109.503906 295.089844 110.578125 C 295.074219 110.609375 295.0625 110.625 295.046875 110.625 C 295.019531 110.625 294.992188 110.585938 294.964844 110.503906 C 294.933594 110.855469 294.863281 111.125 294.75 111.308594 C 294.359375 112.109375 294.089844 112.507812 293.9375 112.507812 C 293.925781 112.507812 293.914062 112.503906 293.902344 112.5 L 293.769531 113.070312 L 294.738281 113.699219 C 294.835938 113.777344 294.914062 113.921875 294.972656 114.128906 C 295.078125 114.882812 295.03125 115.707031 294.824219 116.597656 L 294.957031 117.914062 C 295.414062 117.582031 295.824219 117.148438 296.1875 116.617188 L 296.125 116.355469 C 296.167969 116.292969 296.261719 116.226562 296.402344 116.160156 C 296.414062 115.753906 296.46875 115.46875 296.574219 115.300781 C 296.65625 115.152344 296.863281 115.066406 297.199219 115.046875 L 297.789062 114.144531 L 298.75 114.226562 C 298.753906 114.226562 298.757812 114.226562 298.761719 114.226562 C 298.816406 114.226562 298.839844 114.253906 298.832031 114.3125 L 298.488281 114.953125 C 298.703125 115.164062 298.78125 115.300781 298.734375 115.355469 C 298.722656 115.457031 298.605469 115.605469 298.375 115.796875 L 298.484375 116.191406 C 298.441406 116.289062 298.371094 116.34375 298.273438 116.355469 C 298.285156 116.53125 298.269531 116.652344 298.21875 116.714844 L 297.765625 117.230469 L 296.898438 117.398438 L 295.757812 119.414062 C 295.550781 119.714844 295.273438 120.007812 294.921875 120.296875 C 294.558594 120.589844 294.277344 120.734375 294.078125 120.734375 C 294.023438 120.734375 293.976562 120.726562 293.9375 120.703125 C 293.402344 120.390625 293.140625 119.882812 293.152344 119.175781 L 293.148438 119.175781 L 292.699219 119.320312 C 292.609375 119.433594 292.507812 119.65625 292.398438 119.980469 C 292.046875 121.003906 291.878906 121.667969 291.890625 121.96875 C 291.832031 122.128906 291.765625 122.21875 291.691406 122.234375 L 290.84375 124.871094 C 291.097656 125.742188 291.292969 127.46875 291.429688 130.050781 C 291.480469 131.324219 291.488281 132.109375 291.453125 132.414062 L 291.117188 134.050781 L 291.285156 135.511719 C 291.226562 137.003906 291.222656 137.964844 291.269531 138.390625 C 291.296875 138.9375 291.386719 139.566406 291.542969 140.269531 C 291.566406 140.3125 291.539062 140.367188 291.453125 140.429688 L 291.730469 141.023438 C 291.792969 141.011719 291.84375 141.007812 291.882812 141.007812 C 291.953125 141.007812 291.984375 141.023438 291.976562 141.058594 C 292.488281 141.726562 292.878906 142.179688 293.144531 142.414062 C 293.410156 142.6875 293.78125 142.824219 294.261719 142.824219 C 294.316406 142.824219 294.375 142.820312 294.433594 142.816406 C 294.546875 142.875 294.617188 143.027344 294.644531 143.269531 C 294.660156 143.605469 294.589844 143.851562 294.4375 144.003906 C 293.570312 144.113281 292.972656 144.167969 292.652344 144.167969 C 292.648438 144.167969 292.644531 144.167969 292.640625 144.167969 C 292.617188 144.167969 292.597656 144.167969 292.578125 144.167969 C 292.246094 144.167969 291.992188 144.132812 291.824219 144.058594 L 290.875 143.480469 L 290.828125 144.128906 L 290.761719 144.160156 L 289.035156 144.125 C 289.023438 144.128906 289.015625 144.128906 289.003906 144.128906 C 288.964844 144.128906 288.941406 144.105469 288.933594 144.058594 C 288.996094 143.570312 288.984375 142.882812 288.902344 141.996094 C 288.875 141.875 289.015625 141.628906 289.316406 141.25 C 289.367188 141.148438 289.386719 140.980469 289.378906 140.742188 C 289.324219 139.351562 289 137.726562 288.402344 135.863281 L 288.558594 132.816406 C 288.167969 133.433594 287.425781 134.214844 286.339844 135.15625 L 285.625 136.113281 L 283.875 138.117188 L 282.710938 139.753906 L 282.535156 139.816406 L 281.972656 140.742188 C 282.085938 140.914062 282.105469 141 282.035156 141 C 281.320312 141.707031 280.925781 142.183594 280.847656 142.421875 C 280.738281 142.558594 280.808594 142.90625 281.054688 143.472656 C 281.058594 143.605469 280.984375 143.757812 280.832031 143.921875 C 280.65625 144.015625 280.488281 144.0625 280.328125 144.0625 C 279.796875 144.0625 279.347656 143.546875 278.984375 142.515625 C 278.75 142.203125 278.894531 141.5625 279.425781 140.59375 L 278.648438 140.605469 L 278.433594 138.859375 L 280.246094 138.378906 L 281.066406 138.417969 L 281.335938 138.175781 C 281.558594 138.011719 282.21875 136.839844 283.320312 134.664062 C 284.945312 133.097656 285.71875 132.199219 285.636719 131.964844 L 286.25 126.570312 C 285.539062 125.601562 285.308594 124.667969 285.558594 123.765625 L 285.191406 124.621094 C 285.265625 125.011719 285.257812 125.300781 285.175781 125.488281 L 284.65625 126.257812 C 284.59375 126.410156 284.613281 126.648438 284.707031 126.972656 L 284.660156 126.957031 L 284.667969 127.007812 C 284.660156 127.007812 284.652344 127.007812 284.644531 127.007812 C 284.523438 127.007812 284.378906 127.054688 284.210938 127.15625 L 283.113281 128.285156 C 281.203125 130.546875 279.316406 132.664062 277.449219 134.628906 L 277.277344 134.855469 C 277.410156 135.144531 277.425781 135.402344 277.328125 135.628906 C 277.261719 135.835938 277.121094 136.054688 276.910156 136.292969 L 271.941406 141.097656 L 270.25 143.226562 C 270.246094 143.257812 270.226562 143.273438 270.195312 143.273438 C 270.167969 143.273438 270.128906 143.261719 270.082031 143.234375 C 270.058594 143.441406 269.96875 143.605469 269.8125 143.734375 C 269.695312 143.84375 269.53125 143.898438 269.316406 143.898438 C 269.285156 143.898438 269.253906 143.898438 269.222656 143.894531 C 269.023438 143.882812 268.855469 143.765625 268.714844 143.542969 C 268.414062 143.578125 268.199219 143.597656 268.0625 143.597656 C 267.949219 143.597656 267.894531 143.585938 267.890625 143.5625 C 267.742188 144.011719 267.492188 144.238281 267.136719 144.238281 C 267.03125 144.238281 266.917969 144.21875 266.792969 144.179688 L 264.421875 141.84375 L 264.234375 141.84375 L 263.476562 140.984375 C 263.472656 140.925781 263.496094 140.898438 263.550781 140.898438 C 263.554688 140.898438 263.558594 140.898438 263.5625 140.898438 L 264.296875 140.757812 L 264.398438 140.484375 C 264.089844 140.207031 264.003906 139.988281 264.140625 139.832031 C 264.488281 139.269531 264.851562 138.800781 265.226562 138.421875 C 265.699219 137.894531 267.6875 136.019531 271.199219 132.800781 C 271.65625 132.511719 272.144531 132.371094 272.667969 132.371094 C 273.304688 132.371094 273.992188 132.582031 274.730469 133.007812 C 275.292969 132.582031 275.648438 132.371094 275.804688 132.371094 C 275.847656 132.371094 275.875 132.386719 275.886719 132.414062 C 276.105469 132.472656 276.285156 132.65625 276.417969 132.960938 C 276.488281 133.121094 276.421875 133.347656 276.214844 133.632812 C 276.203125 133.652344 276.242188 133.703125 276.335938 133.78125 L 282.761719 126.875 L 282.75 126.691406 L 283.234375 126.171875 C 283.132812 125.773438 283.148438 125.492188 283.277344 125.320312 C 283.964844 124.707031 284.316406 124.328125 284.328125 124.175781 C 284.445312 123.941406 284.589844 123.445312 284.761719 122.691406 C 283.597656 121.757812 283 120.980469 282.964844 120.355469 C 282.925781 120.105469 282.980469 119.769531 283.132812 119.347656 L 284.203125 117.144531 C 285.0625 116.054688 285.875 115.304688 286.640625 114.886719 C 286.285156 114.640625 286.210938 114.414062 286.429688 114.207031 C 286.519531 114.160156 286.597656 114.140625 286.65625 114.140625 C 286.699219 114.140625 286.734375 114.148438 286.761719 114.171875 L 287.597656 114.820312 C 288.457031 113.753906 289.019531 113.136719 289.28125 112.972656 L 291.507812 112.027344 C 291.578125 111.984375 291.597656 111.640625 291.566406 111.003906 C 290.972656 110.90625 290.691406 109.988281 290.730469 108.25 C 290.808594 107.925781 291 107.625 291.308594 107.351562 C 291.421875 107.242188 291.582031 107.1875 291.792969 107.1875 C 291.828125 107.1875 291.859375 107.1875 291.894531 107.191406 C 292.222656 106.789062 292.597656 106.582031 293.019531 106.566406 L 293.046875 106.5625 C 293.070312 106.558594 293.097656 106.558594 293.121094 106.558594 Z M 293.121094 106.558594 " fill-opacity="1" fill-rule="nonzero"/></g></svg>