<svg xmlns="http://www.w3.org/2000/svg" xmlns:xlink="http://www.w3.org/1999/xlink" width="500" zoomAndPan="magnify" viewBox="0 0 375 374.999991" height="500" preserveAspectRatio="xMidYMid meet" version="1.0"><defs><g/></defs><g fill="#057299" fill-opacity="1"><g transform="translate(27.359963, 206.461743)"><g><path d="M 42.851562 -20.085938 C 41.824219 -23.382812 40.277344 -26.578125 38.835938 -29.769531 C 38.421875 -30.699219 38.9375 -32.242188 39.96875 -32.757812 C 43.058594 -34.304688 45.121094 -36.570312 46.664062 -39.558594 C 47.28125 -40.792969 48.3125 -41.925781 49.035156 -42.957031 C 49.652344 -45.121094 50.269531 -47.078125 50.992188 -49.445312 C 50.375 -52.226562 50.0625 -54.492188 49.445312 -56.761719 C 48.621094 -60.261719 46.972656 -63.558594 43.988281 -65.515625 C 40.484375 -67.679688 37.289062 -70.359375 33.066406 -71.492188 C 27.402344 -72.109375 21.53125 -71.902344 16.996094 -71.59375 C 13.804688 -70.769531 11.847656 -70.253906 9.890625 -69.636719 C 9.683594 -69.636719 9.476562 -69.222656 9.269531 -68.914062 C 8.550781 -67.472656 7.828125 -65.929688 7.3125 -64.691406 C 7.417969 -63.660156 7.417969 -63.042969 7.519531 -62.425781 C 7.933594 -62.117188 8.34375 -61.5 8.859375 -61.394531 C 11.433594 -60.777344 14.007812 -60.984375 16.6875 -61.1875 C 21.941406 -61.5 27.195312 -61.703125 32.242188 -61.085938 C 34.40625 -59.542969 36.363281 -58.203125 38.421875 -56.761719 C 39.042969 -55.523438 39.660156 -54.289062 40.382812 -52.84375 C 40.382812 -51.507812 40.382812 -50.0625 40.382812 -48.414062 C 38.9375 -46.355469 37.394531 -44.191406 36.15625 -42.339844 C 34.507812 -41.515625 33.171875 -40.894531 31.933594 -40.277344 C 28.328125 -40.070312 24.722656 -39.867188 21.21875 -39.761719 C 20.085938 -39.761719 18.953125 -39.867188 17.71875 -40.070312 C 17.203125 -40.175781 16.792969 -40.691406 16.277344 -41 C 15.863281 -42.339844 15.554688 -43.675781 15.144531 -45.015625 C 13.496094 -45.839844 11.742188 -46.253906 11.226562 -48.3125 C 12.050781 -49.445312 13.082031 -50.578125 13.804688 -51.816406 C 14.007812 -52.125 13.699219 -52.84375 13.597656 -53.464844 C 12.773438 -53.257812 12.050781 -53.15625 11.332031 -52.949219 C 9.582031 -53.773438 9.066406 -55.523438 8.136719 -56.964844 C 8.136719 -56.964844 7.828125 -56.761719 7.621094 -56.65625 C 6.902344 -55.007812 7.003906 -53.257812 7.109375 -51.507812 C 7.417969 -45.632812 6.695312 -39.761719 6.902344 -33.992188 C 7.003906 -32.449219 6.902344 -31.007812 6.285156 -29.667969 C 5.976562 -28.84375 5.769531 -27.917969 5.769531 -27.09375 C 5.769531 -19.160156 5.664062 -11.226562 5.769531 -3.296875 C 5.769531 -2.882812 6.285156 -2.371094 6.59375 -1.855469 C 9.167969 -1.339844 11.847656 -1.234375 14.421875 -1.648438 C 14.832031 -2.164062 15.144531 -2.574219 15.65625 -3.089844 C 15.761719 -4.429688 15.761719 -5.871094 15.863281 -7.3125 C 15.863281 -13.804688 15.96875 -20.292969 16.070312 -26.679688 C 16.171875 -27.503906 16.6875 -28.328125 16.996094 -29.253906 C 19.984375 -29.253906 22.972656 -29.359375 25.855469 -29.460938 C 26.371094 -29.460938 26.886719 -29.050781 27.917969 -28.742188 C 28.429688 -27.09375 29.769531 -25.546875 30.492188 -23.589844 C 31.316406 -21.425781 32.550781 -19.367188 33.273438 -17.203125 C 33.890625 -15.144531 34.816406 -13.390625 35.953125 -11.742188 C 37.496094 -9.582031 38.835938 -7.3125 40.382812 -4.839844 C 40.792969 -3.398438 40.585938 -1.648438 41.71875 -0.101562 C 42.027344 -0.101562 42.339844 0.101562 42.542969 0.101562 C 44.808594 -0.515625 46.871094 -1.546875 49.238281 -1.546875 C 49.550781 -1.648438 49.859375 -1.75 50.0625 -1.957031 C 50.269531 -2.164062 50.375 -2.371094 50.578125 -2.574219 C 50.0625 -6.695312 48.519531 -10.402344 46.253906 -13.90625 C 45.015625 -15.863281 43.574219 -17.820312 42.851562 -20.085938 Z M 42.851562 -20.085938 "/></g></g></g><g fill="#057299" fill-opacity="1"><g transform="translate(82.160072, 206.461743)"><g><path d="M 38.835938 -32.140625 C 38.011719 -34.304688 37.703125 -36.570312 37.1875 -38.628906 C 32.449219 -46.253906 25.648438 -49.960938 17.203125 -51.300781 C 15.554688 -50.886719 14.421875 -49.652344 13.1875 -48.519531 C 11.640625 -47.179688 9.992188 -45.945312 8.035156 -44.398438 C 6.386719 -42.027344 4.839844 -39.042969 3.8125 -35.539062 C 3.707031 -33.480469 3.503906 -31.109375 3.503906 -28.742188 C 3.503906 -27.402344 3.605469 -26.0625 4.015625 -24.722656 C 5.152344 -21.21875 6.386719 -17.71875 7.828125 -14.320312 C 10.199219 -8.445312 14.320312 -4.121094 20.394531 -1.855469 C 21.632812 -1.441406 22.972656 -1.234375 24.515625 -1.339844 C 26.164062 -2.164062 27.917969 -3.089844 28.945312 -3.503906 C 34.714844 -7.933594 37.1875 -13.390625 39.660156 -19.46875 C 39.761719 -21.425781 39.867188 -23.796875 39.761719 -26.164062 C 39.761719 -28.226562 39.558594 -30.183594 38.835938 -32.140625 Z M 29.667969 -17.613281 C 28.84375 -15.347656 27.296875 -13.597656 25.546875 -12.050781 C 24.414062 -11.023438 22.042969 -10.816406 20.808594 -11.742188 C 19.984375 -12.257812 19.058594 -12.875 18.542969 -13.597656 C 17.410156 -15.347656 16.070312 -17.101562 15.761719 -18.953125 C 14.9375 -22.664062 12.980469 -25.855469 12.050781 -29.359375 C 12.566406 -32.347656 13.1875 -35.230469 13.804688 -38.320312 C 15.144531 -41 17.410156 -42.027344 20.394531 -41.515625 C 21.117188 -41.410156 21.734375 -41.308594 22.457031 -41.101562 C 25.136719 -39.660156 27.296875 -37.597656 29.253906 -34.816406 C 29.566406 -31.417969 31.726562 -28.226562 31.726562 -24.105469 C 31.109375 -22.148438 30.390625 -19.882812 29.667969 -17.613281 Z M 29.667969 -17.613281 "/></g></g></g><g fill="#057299" fill-opacity="1"><g transform="translate(125.629331, 206.461743)"><g><path d="M 45.738281 -7.828125 C 43.882812 -9.167969 42.339844 -10.714844 41.410156 -13.597656 C 41.308594 -14.832031 41 -16.6875 41 -18.542969 C 40.894531 -22.664062 41.101562 -26.785156 41.101562 -31.007812 C 41.101562 -35.4375 41.101562 -39.96875 40.894531 -44.5 C 40.894531 -45.429688 40.070312 -46.457031 39.660156 -47.28125 C 37.1875 -47.796875 35.023438 -48.105469 32.550781 -46.046875 C 31.523438 -42.234375 32.550781 -37.597656 30.59375 -33.375 C 28.84375 -29.769531 28.636719 -25.339844 26.988281 -21.632812 C 25.238281 -17.613281 25.03125 -12.773438 21.117188 -9.683594 C 19.675781 -9.375 18.234375 -9.066406 17.101562 -10.507812 C 14.113281 -22.042969 14.113281 -22.042969 14.007812 -30.285156 C 13.90625 -35.230469 13.804688 -40.070312 13.597656 -44.914062 C 13.597656 -45.632812 12.980469 -46.253906 12.464844 -47.179688 C 11.226562 -47.28125 9.785156 -47.695312 8.34375 -47.589844 C 7.3125 -47.589844 6.386719 -46.871094 5.460938 -46.457031 C 4.636719 -35.332031 4.839844 -24.414062 5.355469 -13.90625 C 6.078125 -11.742188 6.796875 -9.992188 7.210938 -8.242188 C 8.136719 -4.738281 10.09375 -2.164062 13.390625 -0.722656 C 21.015625 0 24.722656 -0.101562 26.679688 -1.339844 C 26.988281 -1.546875 27.296875 -1.75 27.605469 -2.058594 C 28.742188 -3.503906 29.875 -4.945312 31.109375 -6.488281 C 31.726562 -6.488281 32.449219 -6.488281 33.066406 -6.488281 C 36.878906 -1.234375 36.878906 -1.234375 42.542969 1.546875 C 45.632812 1.339844 46.769531 -0.101562 47.796875 -1.75 C 48.105469 -4.121094 47.796875 -6.285156 45.738281 -7.828125 Z M 45.738281 -7.828125 "/></g></g></g><g fill="#057299" fill-opacity="1"><g transform="translate(175.8971, 206.461743)"><g><path d="M 41.101562 -5.5625 C 41 -6.695312 40.382812 -7.519531 39.246094 -8.445312 C 38.734375 -8.859375 36.570312 -8.550781 35.746094 -8.652344 C 34.507812 -8.652344 33.171875 -8.757812 31.933594 -9.269531 C 29.359375 -10.09375 28.535156 -11.847656 27.710938 -14.214844 C 27.09375 -15.65625 26.886719 -17.203125 26.785156 -18.75 C 26.679688 -21.21875 27.296875 -23.589844 27.503906 -26.0625 C 27.605469 -28.226562 27.296875 -30.59375 26.988281 -32.757812 C 26.886719 -33.992188 26.886719 -35.539062 28.535156 -36.054688 C 30.902344 -36.777344 34.199219 -35.746094 37.496094 -36.878906 C 38.011719 -37.597656 38.628906 -38.421875 39.144531 -39.144531 C 38.835938 -39.96875 38.628906 -40.585938 38.421875 -41.101562 C 38.421875 -42.234375 39.453125 -43.058594 38.421875 -44.191406 C 36.980469 -44.914062 35.4375 -45.632812 33.890625 -46.355469 C 32.035156 -45.839844 30.390625 -45.429688 28.84375 -45.015625 C 26.785156 -45.53125 25.445312 -46.457031 24.722656 -48.726562 C 24.621094 -51.609375 24.515625 -54.800781 24.414062 -57.789062 C 23.382812 -59.851562 23.074219 -62.117188 21.324219 -63.457031 C 18.851562 -63.867188 16.378906 -64.484375 14.214844 -62.011719 C 14.007812 -59.027344 13.90625 -55.832031 15.246094 -52.84375 C 16.171875 -50.785156 16.070312 -48.621094 15.761719 -46.5625 C 15.761719 -45.945312 15.039062 -45.429688 14.628906 -44.914062 C 11.226562 -43.78125 7.519531 -45.222656 4.328125 -43.882812 C 2.472656 -42.75 1.339844 -41.515625 1.648438 -39.144531 C 2.371094 -38.21875 3.089844 -36.980469 3.8125 -36.570312 C 5.976562 -35.230469 7.828125 -35.847656 9.582031 -35.746094 C 10.917969 -35.640625 12.257812 -34.921875 13.699219 -34.921875 C 15.246094 -34.921875 16.480469 -35.230469 17.304688 -33.582031 C 18.027344 -31.832031 17.925781 -29.875 17.820312 -28.121094 C 17.71875 -26.269531 17.820312 -24.414062 17.820312 -22.558594 C 17.925781 -19.367188 17.925781 -16.070312 17.925781 -13.496094 C 21.941406 -4.121094 21.941406 -4.121094 28.636719 -0.101562 C 32.035156 0 35.640625 0.410156 38.9375 -0.722656 C 41 -3.503906 41.101562 -3.8125 41.101562 -5.5625 Z M 41.101562 -5.5625 "/></g></g></g><g fill="#057299" fill-opacity="1"><g transform="translate(219.778391, 206.461743)"><g><path d="M 36.777344 -46.457031 C 32.550781 -48.003906 28.328125 -46.972656 24.929688 -46.769531 C 21.21875 -45.429688 18.75 -43.265625 15.65625 -42.957031 C 14.113281 -44.089844 12.773438 -45.222656 11.332031 -46.253906 C 9.992188 -47.078125 8.652344 -46.871094 7.210938 -46.355469 C 6.902344 -45.738281 6.179688 -45.222656 6.179688 -44.605469 C 5.976562 -42.851562 5.871094 -41.101562 5.976562 -39.351562 C 6.386719 -33.273438 5.976562 -27.195312 5.664062 -21.117188 C 5.5625 -19.46875 4.429688 -17.71875 4.636719 -15.96875 C 4.738281 -13.90625 5.5625 -11.949219 5.5625 -9.785156 C 5.5625 -6.179688 5.871094 -2.679688 5.976562 0.722656 C 8.136719 3.296875 10.609375 2.472656 13.289062 1.957031 C 13.597656 1.132812 14.320312 0.308594 14.421875 -0.617188 C 14.523438 -3.8125 14.628906 -7.109375 14.320312 -10.300781 C 13.804688 -16.070312 14.628906 -21.632812 16.480469 -26.988281 C 16.6875 -27.710938 16.996094 -28.328125 17.304688 -29.152344 C 20.085938 -32.140625 22.355469 -35.953125 26.371094 -37.804688 C 32.347656 -38.628906 32.347656 -38.527344 36.777344 -36.980469 C 38.113281 -39.042969 39.761719 -41 39.761719 -43.574219 C 39.042969 -44.914062 38.21875 -46.046875 36.777344 -46.457031 Z M 36.777344 -46.457031 "/></g></g></g><g fill="#057299" fill-opacity="1"><g transform="translate(261.084488, 206.461743)"><g><path d="M 37.394531 -10.714844 C 36.878906 -11.539062 36.054688 -12.15625 35.332031 -12.875 C 30.078125 -10.917969 24.824219 -10.609375 19.574219 -11.539062 C 17.410156 -12.671875 15.453125 -14.007812 14.007812 -16.171875 C 13.390625 -17.820312 12.773438 -19.675781 12.257812 -21.117188 C 12.566406 -23.589844 13.699219 -24.621094 15.039062 -25.136719 C 19.058594 -25.339844 22.765625 -25.546875 25.753906 -25.648438 C 29.359375 -27.402344 32.347656 -28.945312 35.128906 -30.285156 C 36.15625 -32.035156 36.980469 -33.480469 37.804688 -34.816406 C 37.804688 -36.570312 37.804688 -38.21875 37.804688 -39.96875 C 36.777344 -41.71875 35.847656 -43.472656 35.128906 -44.808594 C 31.316406 -47.179688 28.429688 -49.960938 24.105469 -51.300781 C 21.632812 -50.578125 18.75 -49.652344 16.585938 -49.035156 C 13.597656 -46.871094 11.226562 -45.015625 9.269531 -43.574219 C 6.386719 -39.558594 5.355469 -35.332031 4.015625 -31.109375 C 4.015625 -26.886719 3.914062 -22.558594 4.015625 -18.128906 C 4.015625 -17.511719 4.222656 -16.894531 4.328125 -16.171875 C 5.046875 -14.730469 5.769531 -13.1875 6.902344 -10.917969 C 9.785156 -8.34375 11.949219 -5.355469 15.347656 -3.605469 C 19.261719 -2.988281 22.867188 -0.515625 26.988281 -1.648438 C 31.210938 -2.679688 35.640625 -3.089844 39.042969 -6.179688 C 38.835938 -7.828125 38.113281 -9.375 37.394531 -10.714844 Z M 14.007812 -34.304688 C 15.65625 -38.011719 17.511719 -41.515625 21.324219 -43.472656 C 24.3125 -44.191406 26.371094 -42.957031 27.8125 -40.277344 C 28.535156 -39.042969 27.917969 -36.464844 26.578125 -35.953125 C 24.515625 -35.128906 22.558594 -33.683594 20.191406 -33.480469 C 18.234375 -33.375 16.378906 -32.859375 14.523438 -32.449219 C 14.320312 -33.171875 13.804688 -33.890625 14.007812 -34.304688 Z M 14.007812 -34.304688 "/></g></g></g><g fill="#057299" fill-opacity="1"><g transform="translate(303.523687, 206.461743)"><g><path d="M 38.21875 -12.980469 C 36.363281 -15.65625 34.816406 -18.4375 33.992188 -21.53125 C 32.964844 -25.445312 30.902344 -28.636719 28.226562 -31.625 C 27.605469 -32.242188 27.503906 -33.480469 27.195312 -34.40625 C 29.460938 -37.804688 31.726562 -41 33.683594 -44.398438 C 35.746094 -47.589844 38.835938 -50.269531 39.246094 -54.390625 C 36.570312 -57.070312 36.570312 -57.070312 32.859375 -57.273438 C 30.492188 -56.140625 29.253906 -53.875 27.8125 -51.816406 C 24.621094 -47.589844 21.632812 -43.164062 18.4375 -38.9375 C 17.71875 -37.804688 16.6875 -36.777344 15.144531 -36.777344 C 14.007812 -37.910156 14.320312 -39.453125 14.113281 -40.792969 C 13.90625 -42.542969 14.113281 -44.5 13.496094 -46.046875 C 12.257812 -49.238281 12.257812 -52.226562 13.496094 -55.316406 C 13.804688 -56.347656 14.113281 -57.378906 14.113281 -58.40625 C 14.113281 -65.207031 14.113281 -71.902344 13.90625 -78.703125 C 13.90625 -79.214844 13.1875 -79.835938 12.773438 -80.554688 C 10.714844 -80.863281 8.652344 -81.585938 6.695312 -80.039062 C 6.902344 -79.011719 7.519531 -77.773438 7.210938 -77.15625 C 5.769531 -74.890625 5.664062 -72.417969 5.769531 -69.945312 C 5.769531 -66.339844 5.976562 -62.835938 5.976562 -59.230469 C 5.976562 -58.511719 5.871094 -57.789062 5.871094 -57.171875 C 5.253906 -55.832031 4.738281 -54.492188 4.222656 -53.257812 C 2.988281 -50.476562 5.769531 -48.519531 5.664062 -46.253906 C 5.253906 -45.015625 4.429688 -43.882812 4.738281 -43.058594 C 5.871094 -39.558594 5.5625 -36.054688 5.871094 -32.550781 C 5.871094 -31.832031 6.285156 -31.210938 6.488281 -30.492188 C 6.902344 -30.183594 7.417969 -29.875 7.933594 -29.460938 C 8.136719 -28.121094 8.035156 -26.679688 9.269531 -25.753906 C 11.332031 -24.722656 13.496094 -24.929688 15.554688 -25.136719 C 17.71875 -25.445312 19.777344 -25.753906 21.734375 -24.515625 C 24.3125 -22.25 25.238281 -19.160156 26.269531 -16.171875 C 27.710938 -11.640625 30.285156 -7.933594 32.859375 -4.015625 C 33.375 -3.195312 34.40625 -2.679688 35.230469 -1.957031 C 36.261719 -1.855469 37.289062 -1.75 38.21875 -1.648438 C 40.382812 -2.78125 41.824219 -4.121094 42.027344 -7.003906 C 40.894531 -8.757812 39.558594 -10.917969 38.21875 -12.980469 Z M 8.136719 -29.566406 C 8.136719 -30.285156 8.445312 -30.902344 9.066406 -30.902344 C 9.785156 -30.902344 10.09375 -30.285156 9.992188 -29.566406 C 9.375 -29.566406 8.757812 -29.566406 8.136719 -29.566406 Z M 11.125 -27.8125 C 10.507812 -28.121094 10.300781 -28.636719 10.300781 -29.253906 C 11.023438 -29.359375 11.539062 -29.152344 11.742188 -28.429688 C 11.742188 -28.328125 11.226562 -27.8125 11.125 -27.8125 Z M 9.066406 -22.355469 C 8.757812 -22.664062 7.828125 -22.558594 7.210938 -22.558594 C 5.046875 -20.394531 7.933594 -18.851562 7.933594 -16.894531 C 6.179688 -12.671875 5.769531 -8.242188 6.695312 -4.015625 C 10.300781 -1.234375 11.023438 -1.339844 13.699219 -4.53125 C 11.949219 -7.519531 11.847656 -10.300781 13.90625 -13.289062 C 14.523438 -14.320312 14.214844 -15.96875 14.421875 -17.410156 C 13.390625 -18.027344 12.464844 -18.4375 11.742188 -19.160156 C 10.816406 -20.085938 10.09375 -21.425781 9.066406 -22.355469 Z M 9.066406 -22.355469 "/></g></g></g></svg>